<svg width="178" height="60" viewBox="0 0 178 60" fill="none" xmlns="http://www.w3.org/2000/svg">
<path fill-rule="evenodd" clip-rule="evenodd" d="M86.5137 16.9809C86.9391 16.7493 87.3014 16.4235 87.5706 16.0304C88.3436 14.6296 89.0591 16.2937 87.923 16.7334C87.4723 16.8795 87.0024 16.9629 86.5273 16.9809H86.5137Z" fill="#F9DF7A"/>
<path d="M85.0146 17.4828L86.0246 16.8437C86.4173 16.5932 86.7526 16.2418 87.0036 15.8178C87.3901 14.9965 87.7823 14.9485 87.9939 14.9933C88.1418 15.0408 88.2722 15.1411 88.3657 15.2793C88.4593 15.4175 88.5109 15.5862 88.513 15.7603C88.5323 16.0545 88.4657 16.3477 88.3235 16.5949C88.1813 16.842 87.9713 17.0294 87.7258 17.1281C87.2289 17.319 86.7099 17.4266 86.1855 17.4477L85.0146 17.4828ZM87.8754 15.6197C87.8528 15.6197 87.7005 15.706 87.5086 16.1182C87.4136 16.3057 87.2989 16.4795 87.1672 16.6359C87.2842 16.6041 87.3992 16.5636 87.5114 16.5145C87.6291 16.4714 87.7329 16.3899 87.8097 16.2801C87.8865 16.1703 87.9329 16.0373 87.9431 15.8977C87.9506 15.8486 87.9484 15.7982 87.9367 15.7501C87.925 15.702 87.904 15.6575 87.8754 15.6197Z" fill="#F9DF7A"/>
<path fill-rule="evenodd" clip-rule="evenodd" d="M84.5117 16.982C84.5117 16.982 85.7771 15.5227 86.0136 14.1701C86.6278 10.7762 89.3121 13.2281 87.242 15.1487C86.4197 15.8624 85.5024 16.4784 84.5117 16.982Z" fill="#F9DF7A"/>
<path d="M83.5146 17.9822L84.3704 16.823C84.3704 16.8082 85.4745 15.3443 85.665 14.0047C85.9134 12.3781 86.5179 12.041 86.8519 11.9848C87.0583 11.9623 87.2659 12.0117 87.444 12.1257C87.622 12.2397 87.761 12.4122 87.8401 12.6177C88.1576 13.2831 88.0968 14.3684 87.2439 15.2792C86.4864 16.0534 85.6395 16.7203 84.7237 17.2636L83.5146 17.9822ZM86.9761 12.5763H86.9402C86.7111 12.6147 86.3882 13.0376 86.217 14.0963C86.0947 14.7743 85.864 15.4246 85.5352 16.0186C86.0025 15.6789 86.4396 15.2938 86.8409 14.8682C87.5006 14.1555 87.5641 13.36 87.3405 12.8897C87.3104 12.8081 87.2609 12.7363 87.1971 12.6813C87.1332 12.6263 87.057 12.5902 86.9761 12.5763Z" fill="#F9DF7A"/>
<path d="M100.021 22.4843L99.1567 21.2303C99.0268 21.0453 98.9166 20.874 98.8121 20.7166C98.1455 19.7002 97.8941 19.319 96.1117 19.1947L94.5186 19.0843L96.0524 18.6451C96.9393 18.3938 97.6907 18.4325 98.2839 18.7694C98.9449 19.1478 99.4138 19.9018 99.6736 21.0094L100.021 22.4843Z" fill="#F9DF7A"/>
<path fill-rule="evenodd" clip-rule="evenodd" d="M88.2722 34.8569C88.2722 34.8569 89.6098 17.3965 80.3873 18.1302C71.1648 18.8638 76.5294 27.1827 76.5294 33.218C73.2883 50.3167 56.5068 31.8467 55.0865 24.2355C54.7448 22.3985 53.9663 23.6724 53.9663 23.6724L53.0439 24.2355L53.9663 25.7328C62.9619 53.4812 88.3826 50.4948 96.9599 23.2142C97.0748 22.8529 97.4771 22.1113 97.3238 21.7809C96.985 21.05 95.5278 20.8792 95.2626 21.7809C93.2767 28.6473 91.4748 31.8394 88.2722 34.8569ZM81.398 28.7422C81.4127 28.7786 81.4245 28.8261 81.4363 28.8625C82.1464 31.1028 81.9666 33.4075 81.4628 35.7037C81.3479 36.2442 80.2989 35.9558 80.3873 35.6421C80.9753 33.4206 80.9753 31.0953 80.3873 28.8738C80.3431 28.5293 81.0709 28.4537 81.4127 28.7534L81.398 28.7422Z" fill="#F9DF7A"/>
<path fill-rule="evenodd" clip-rule="evenodd" d="M75.0212 27.7934C74.7559 26.3067 74.5 24.873 74.5 23.4959L74.4686 23.5038C74.4686 20.2173 76.9472 18.429 79.6218 18.1074H81.4455C82.752 18.2413 83.9783 18.8008 84.9359 19.6997C87.583 22.3743 88.1595 27.3393 88.1595 31.5121L88.0027 33.9593C91.3647 31.5882 93.5568 24.7987 94.3445 22.3589C94.5014 21.873 94.6025 21.5596 94.6462 21.488C95.3403 20.386 96.4816 20.2174 97.3914 21.3194C98.6653 22.853 96.0875 28.1673 94.9895 30.431C94.8773 30.6622 94.7806 30.8616 94.705 31.0219C92.3859 35.9615 88.737 40.1577 84.1672 43.1402C81.597 44.7762 78.6483 45.7218 75.6059 45.8854H73.7235C70.9086 45.7335 68.1709 44.9106 65.7388 43.4853C61.7229 41.1361 57.9697 36.6379 55.8833 32.2651C55.365 31.1654 54.9678 30.2149 54.5223 29.1488C54.4419 28.9565 54.3599 28.7604 54.2754 28.559C54.0244 27.9472 53.04 25.3431 53.04 24.6372C53.04 23.5234 53.4557 22.3469 54.6087 22.3469C55.7253 22.3469 55.9519 23.263 56.1933 24.2392C56.2479 24.4597 56.3032 24.6832 56.3696 24.9C56.6926 25.9622 57.1264 26.9875 57.6638 27.9589C58.6981 29.9312 59.5865 31.0829 60.786 32.6382C60.9055 32.7931 61.0281 32.952 61.1542 33.1161C62.868 35.3515 70.0488 43.1323 73.6098 39.3909C73.9997 38.8991 74.3191 38.3552 74.5588 37.7751C76.1716 34.2392 75.5758 30.9006 75.0212 27.7934ZM80.2206 19.2957C88.9544 18.5662 86.4955 36.7672 86.4955 36.7672V36.7907C90.3466 34.0455 93.4056 29.3668 95.2802 22.5076C95.5312 21.6095 96.1548 21.6331 96.4803 22.3664C96.5962 22.6327 96.5345 22.8089 96.449 23.0529C96.4274 23.1144 96.4044 23.1801 96.3823 23.2528C88.2563 50.4581 62.5962 52.8191 54.0702 25.147C54.0584 25.1235 54.0231 25.0137 54.0231 24.9901C53.627 24.2607 54.5408 22.5351 54.8624 24.3665C56.2193 31.9709 73.2908 52.0033 76.3734 34.9553C76.8109 32.5208 76.354 29.9748 75.9382 27.6585C75.1578 23.3107 74.5225 19.7716 80.2206 19.2957Z" fill="#F9DF7A"/>
<path fill-rule="evenodd" clip-rule="evenodd" d="M54.8497 20.3173C53.3751 19.8859 52.1397 20.2703 51.6221 22.4979C52.5711 21.0782 52.6535 20.4546 54.8497 20.3173Z" fill="#F9DF7A"/>
<path d="M51 23.9095L51.349 22.4153C51.6079 21.2976 52.0706 20.5329 52.7217 20.1524C53.0606 19.9789 53.4319 19.8778 53.812 19.8555C54.1921 19.8333 54.5727 19.8903 54.9296 20.023L56.4473 20.4701L54.8786 20.58C53.1138 20.7054 52.8668 21.0937 52.2079 22.1212C52.102 22.282 51.9961 22.4546 51.8667 22.6389L51 23.9095Z" fill="#F9DF7A"/>
<path fill-rule="evenodd" clip-rule="evenodd" d="M54.8497 20.3173C53.3751 19.8859 52.1397 20.2703 51.6221 22.4979C52.5711 21.0782 52.6535 20.4546 54.8497 20.3173Z" fill="#F9DF7A"/>
<path fill-rule="evenodd" clip-rule="evenodd" d="M85.877 16.9566C86.3115 16.7112 86.6812 16.3656 86.9554 15.9487C87.7398 14.4623 88.481 16.2271 87.3162 16.6938C86.8556 16.8498 86.3747 16.9383 85.8887 16.9566H85.877Z" fill="#F9DF7A"/>
<path fill-rule="evenodd" clip-rule="evenodd" d="M84.3027 16.7292C84.3027 16.7292 85.4518 15.2781 85.6675 13.9369C86.2205 10.5642 88.6677 12.9996 86.7852 14.9056C86.0377 15.6154 85.2036 16.2281 84.3027 16.7292Z" fill="#F9DF7A"/>
<path fill-rule="evenodd" clip-rule="evenodd" d="M48.1291 41.4483C48.136 42.7898 47.8977 44.1194 47.4281 45.36C46.9584 46.6006 46.2668 47.7275 45.3933 48.6753C44.5199 49.6232 43.4819 50.3731 42.3397 50.8815C41.1975 51.3899 39.9737 51.6468 38.7394 51.6372L3.03515 51.5088C2.42525 51.4852 1.83481 51.2693 1.33574 50.8876C0.836676 50.5058 0.450506 49.9746 0.224256 49.3586C-0.0019952 48.7426 -0.0585599 48.0683 0.0614399 47.418C0.18144 46.7677 0.472829 46.1693 0.900132 45.6957C1.18307 45.3811 1.52089 45.1311 1.89383 44.9601C2.26677 44.7892 2.66734 44.7008 3.07209 44.7001L38.7764 44.8366C39.199 44.859 39.6215 44.7878 40.0181 44.6274C40.4147 44.467 40.7772 44.2207 41.0836 43.9035C41.39 43.5863 41.6339 43.2048 41.8006 42.7821C41.9673 42.3593 42.0532 41.9042 42.0532 41.4443C42.0532 40.9844 41.9673 40.5293 41.8006 40.1066C41.6339 39.6838 41.39 39.3023 41.0836 38.9851C40.7772 38.6679 40.4147 38.4216 40.0181 38.2612C39.6215 38.1008 39.199 38.0297 38.7764 38.052H26.2396C25.0044 38.0606 23.7798 37.8024 22.6371 37.2926C21.4943 36.7828 20.4561 36.0314 19.5826 35.0821C18.7092 34.1327 18.0178 33.0044 17.5487 31.7624C17.0796 30.5204 16.8421 29.1896 16.85 27.8471C16.8441 26.5059 17.083 25.1768 17.553 23.9366C18.023 22.6965 18.7146 21.5701 19.5879 20.6224C20.4612 19.6748 21.4987 18.9249 22.6405 18.4161C23.7823 17.9072 25.0056 17.6496 26.2396 17.6581H28.7071C28.7071 17.6581 28.7071 17.6581 28.744 17.6581C28.8473 17.6498 28.951 17.6498 29.0543 17.6581H41.9235C42.5396 17.6691 43.1391 17.8769 43.6473 18.2556C44.1555 18.6343 44.55 19.1671 44.7815 19.7877C45.0131 20.4083 45.0715 21.0892 44.9495 21.7456C44.8275 22.4021 44.5305 23.005 44.0954 23.4792C43.8138 23.7956 43.4762 24.0469 43.103 24.218C42.7298 24.3891 42.3286 24.4764 41.9235 24.4748H41.2438H26.2396C25.4108 24.4748 24.616 24.8327 24.0299 25.4696C23.4439 26.1065 23.1147 26.9704 23.1147 27.8711C23.1147 28.7719 23.4439 29.6358 24.0299 30.2727C24.616 30.9096 25.4108 31.2674 26.2396 31.2674H38.7394C39.9747 31.2589 41.1992 31.517 42.342 32.0269C43.4847 32.5367 44.5229 33.2881 45.3964 34.2374C46.2699 35.1867 46.9612 36.3151 47.4303 37.5571C47.8994 38.799 48.1369 40.1299 48.1291 41.4724V41.4483Z" fill="#F9DF7A"/>
<path fill-rule="evenodd" clip-rule="evenodd" d="M154.88 22.797C153.426 22.8763 152.059 23.5743 151.075 24.74C149.598 26.4903 148.696 27.3735 150.048 29.148C151.4 30.9224 153.432 33.8771 155.05 32.8895C156.668 31.9019 156.616 32.0866 156.616 32.0866C156.616 32.0866 160.472 29.0998 159.15 26.113C157.827 23.1261 155.907 24.2663 155.907 24.2663C155.907 24.2663 157.561 23.6962 158.071 25.2539C158.322 25.9505 158.4 26.7065 158.298 27.4463C158.195 28.186 157.916 28.8836 157.488 29.4691C156.697 30.3443 156.749 30.7457 155.87 31.0749C154.991 31.4041 154.961 31.2355 154.961 31.0749C154.961 30.9144 158.766 28.2407 157.68 26.2575C156.594 24.2743 153.875 23.8488 153.491 24.4108C153.107 24.9728 151.711 25.9604 151.474 26.2575C151.238 26.5546 150.92 26.3378 151.134 26.113C151.349 25.8882 153.232 23.3831 153.949 23.2305C154.305 23.1898 154.638 23.0201 154.895 22.7488L154.88 22.797ZM156.062 25.7356C156.062 25.7356 155.692 26.0006 155.463 25.856C155.234 25.7115 154.991 25.856 154.858 25.5188C154.725 25.1816 154.998 24.5714 155.382 24.8123C155.675 25.0589 155.912 25.3746 156.077 25.7356H156.062ZM154.651 30.5531C154.25 30.5349 153.862 30.3952 153.53 30.1497C153.198 29.9042 152.937 29.5628 152.774 29.164C152.336 28.406 152.101 27.5302 152.095 26.6349C151.877 26.6742 151.68 26.8006 151.544 26.9892C151.407 27.1778 151.34 27.4151 151.356 27.6546C151.356 28.5618 152.435 31.4764 154.06 31.0187C155.685 30.5611 154.658 30.5531 154.658 30.5531H154.651Z" fill="#F9DF7A"/>
<path fill-rule="evenodd" clip-rule="evenodd" d="M139.787 5.81537C139.787 5.81537 133.996 -0.134181 133.648 0.00231318C133.301 0.138808 138.251 7.22849 138.251 7.22849L139.787 5.81537Z" fill="#F9DF7A"/>
<path fill-rule="evenodd" clip-rule="evenodd" d="M155.168 17.6421C155.168 17.6421 153.58 24.218 148.556 24.1617C143.533 24.1055 143.03 17.6502 144.124 19.1837C145.091 20.5487 149.184 25.5267 151.297 20.372C151.143 20.9077 150.829 21.3723 150.405 21.6923C149.981 22.0123 149.471 22.1693 148.955 22.1384C146.739 22.034 143.163 19.7297 144.301 17.7706C144.84 16.8312 148.652 14.1655 150.211 13.8283C151.77 13.4911 155.08 13.4509 155.19 15.8035C155.301 18.156 155.168 17.6421 155.168 17.6421Z" fill="#F9DF7A"/>
<path fill-rule="evenodd" clip-rule="evenodd" d="M167.579 39.128C166.129 39.2091 164.766 39.9036 163.782 41.063C162.304 42.8214 161.396 43.7046 162.747 45.471C164.099 47.2374 166.138 50.2001 167.749 49.2126C169.359 48.225 169.337 48.3695 169.337 48.3695C169.337 48.3695 173.194 45.463 171.871 42.444C170.549 39.4251 168.635 40.5974 168.635 40.5974C168.635 40.5974 170.283 40.0273 170.8 41.5849C171.048 42.2827 171.123 43.0386 171.02 43.7779C170.916 44.5172 170.637 45.2143 170.209 45.8002C169.426 46.6673 169.47 47.0688 168.598 47.406C167.727 47.7432 167.69 47.5586 167.69 47.406C167.69 47.2535 171.494 44.5718 170.401 42.5886C169.308 40.6054 166.596 40.1798 166.22 40.7419C165.843 41.3039 164.432 42.2835 164.195 42.5886C163.959 42.8937 163.649 42.6608 163.863 42.4521C164.077 42.2433 165.954 39.7222 166.67 39.5696C167.027 39.532 167.361 39.3619 167.616 39.0879L167.579 39.128ZM168.768 42.0667C168.768 42.0667 168.399 42.3236 168.17 42.1871C167.941 42.0506 167.69 42.1871 167.557 41.8419C167.424 41.4966 167.705 40.8944 168.081 41.1433C168.372 41.3919 168.61 41.7072 168.776 42.0667H168.768ZM167.357 46.8841C166.955 46.8693 166.564 46.731 166.231 46.4853C165.898 46.2395 165.635 45.8962 165.473 45.4951C165.039 44.7382 164.804 43.8661 164.794 42.974C164.576 43.0098 164.378 43.1341 164.241 43.3218C164.104 43.5095 164.038 43.7467 164.055 43.9856C164.055 44.9009 165.134 47.8075 166.759 47.3578C168.384 46.9082 167.357 46.8841 167.357 46.8841Z" fill="#F9DF7A"/>
<path fill-rule="evenodd" clip-rule="evenodd" d="M166.242 34.72C166.242 34.72 164.654 41.2958 159.63 41.2396C154.607 41.1834 154.105 34.728 155.198 36.2616C156.166 37.6265 160.258 42.6046 162.379 37.4499C162.222 37.9855 161.907 38.4495 161.482 38.7692C161.056 39.0889 160.546 39.2462 160.029 39.2163C157.813 39.1119 154.245 36.8076 155.375 34.8485C155.915 33.9091 159.734 31.2434 161.285 30.9062C162.837 30.569 166.154 30.5288 166.265 32.8814C166.375 35.2339 166.242 34.72 166.242 34.72Z" fill="#F9DF7A"/>
<path fill-rule="evenodd" clip-rule="evenodd" d="M177.523 53.9898C176.134 52.4322 173.142 49.1724 171.687 48.1205C171.288 47.8315 170.882 48.8351 170.815 48.8833C170.394 49.1162 173.992 53.8533 175.595 55.7723C176.622 56.9927 179.015 55.6358 177.523 53.9898Z" fill="#F9DF7A"/>
<path fill-rule="evenodd" clip-rule="evenodd" d="M143.148 5.86353C141.696 5.9425 140.33 6.63722 139.343 7.79854C137.91 9.55691 136.964 10.4401 138.316 12.2065C139.668 13.9729 141.7 16.9356 143.31 15.9481C144.921 14.9605 144.877 15.1452 144.877 15.1452C144.877 15.1452 148.733 12.2306 147.418 9.21969C146.103 6.20878 144.175 7.37299 144.175 7.37299C144.175 7.37299 145.822 6.80293 146.339 8.36057C146.59 9.05598 146.667 9.81062 146.565 10.549C146.463 11.2873 146.183 11.9835 145.756 12.5678C144.965 13.443 145.017 13.8444 144.138 14.1736C143.259 14.5028 143.229 14.3342 143.229 14.1736C143.229 14.013 147.034 11.3394 145.948 9.35618C144.862 7.37299 142.143 6.94745 141.759 7.50949C141.375 8.07153 139.979 9.0591 139.735 9.35618C139.491 9.65325 139.188 9.43647 139.402 9.22771C139.617 9.01896 141.493 6.49782 142.21 6.34527C142.566 6.30764 142.9 6.1375 143.155 5.86353H143.148ZM144.33 8.80217C144.33 8.80217 143.961 9.0591 143.732 8.91458C143.502 8.77006 143.251 8.91458 143.118 8.57736C142.985 8.24013 143.266 7.62992 143.65 7.87883C143.941 8.12741 144.178 8.44267 144.345 8.80217H144.33ZM142.919 13.6196C142.518 13.605 142.129 13.4676 141.797 13.2232C141.465 12.9789 141.204 12.6376 141.042 12.2386C140.603 11.4837 140.365 10.6108 140.355 9.71749C140.137 9.7533 139.94 9.87758 139.803 10.0653C139.666 10.253 139.599 10.4902 139.617 10.7292C139.617 11.6364 140.695 14.551 142.32 14.0933C143.946 13.6357 142.919 13.6277 142.919 13.6277V13.6196Z" fill="#F9DF7A"/>
<path d="M147.669 36.9763H143.805C143.427 36.982 143.054 36.8824 142.721 36.687C142.388 36.4916 142.107 36.207 141.904 35.8601C141.701 35.5132 141.584 35.1157 141.562 34.7054C141.54 34.295 141.616 33.8855 141.781 33.5158L144.108 28.1604C144.256 27.8315 144.332 27.4705 144.332 27.1046C144.332 26.7387 144.256 26.3776 144.108 26.0487L141.264 19.8342L130.796 43.0624C130.623 43.4318 130.54 43.8434 130.557 44.2575C130.573 44.6716 130.687 45.0741 130.889 45.4261C131.09 45.7781 131.371 46.0676 131.706 46.2668C132.04 46.466 132.416 46.568 132.798 46.5631H134.844C135.27 46.565 135.687 46.4336 136.046 46.1844C136.405 45.9352 136.691 45.5788 136.868 45.158L137.696 43.239C137.873 42.8182 138.158 42.4618 138.517 42.2126C138.876 41.9634 139.294 41.8319 139.72 41.8339H147.669C148.049 41.8389 148.423 41.7376 148.757 41.5398C149.091 41.3421 149.372 41.0544 149.573 40.7045C149.775 40.3546 149.891 39.9543 149.909 39.5418C149.928 39.1294 149.848 38.7187 149.678 38.3493C149.498 37.9369 149.213 37.5889 148.857 37.3458C148.501 37.1027 148.089 36.9746 147.669 36.9763Z" fill="#F9DF7A"/>
<path fill-rule="evenodd" clip-rule="evenodd" d="M110.075 58.0502C110.075 58.0502 119.679 57.2955 119.849 56.8378C120.019 56.3802 110.075 55.4006 110.075 55.4006V58.0502Z" fill="#F9DF7A"/>
<path fill-rule="evenodd" clip-rule="evenodd" d="M61.5152 58.1892C61.5152 58.1892 51.9113 57.4344 51.7414 56.9768C51.5715 56.5191 61.5152 55.5396 61.5152 55.5396V58.1892Z" fill="#F9DF7A"/>
<path d="M117.285 38.2449V43.239C117.285 44.1206 116.962 44.9661 116.389 45.5895C115.815 46.2128 115.037 46.563 114.226 46.563H114.049C113.646 46.5652 113.247 46.4807 112.874 46.3146C112.501 46.1485 112.162 45.904 111.877 45.5952C111.591 45.2863 111.364 44.9191 111.21 44.5148C111.055 44.1104 110.976 43.6769 110.976 43.239V38.2529C110.975 37.5271 110.754 36.8218 110.348 36.2457L103.071 25.8079C102.728 25.3139 102.518 24.726 102.465 24.1098C102.413 23.4937 102.519 22.8737 102.772 22.3194C103.025 21.7651 103.415 21.2983 103.898 20.9714C104.382 20.6445 104.939 20.4704 105.509 20.4685H105.62C106.116 20.4671 106.606 20.5982 107.045 20.8501C107.484 21.1021 107.86 21.4673 108.139 21.9138L111.641 27.4217C111.921 27.8688 112.298 28.2347 112.738 28.4875C113.179 28.7403 113.669 28.8725 114.167 28.8725C114.665 28.8725 115.156 28.7403 115.596 28.4875C116.036 28.2347 116.413 27.8688 116.694 27.4217L120.107 21.9539C120.387 21.5042 120.765 21.136 121.207 20.8813C121.648 20.6266 122.141 20.4932 122.641 20.4926C123.209 20.4922 123.767 20.6641 124.25 20.989C124.734 21.3139 125.125 21.779 125.379 22.3319C125.633 22.8848 125.74 23.5037 125.688 24.1192C125.637 24.7346 125.428 25.3222 125.086 25.8159L117.883 36.2537C117.489 36.8286 117.279 37.528 117.285 38.2449Z" fill="#F9DF7A"/>
<path d="M67.0044 56.0251C67.3113 55.6421 67.5528 55.2437 67.729 54.8299L68.1723 53.755C68.286 53.4833 68.4679 53.3474 68.7179 53.3474C68.8316 53.3474 68.951 53.4369 69.076 53.6161C69.2295 53.8323 69.3687 54.765 69.4937 56.4143C69.596 57.7423 69.6472 58.7677 69.6472 59.4904C69.6472 59.5954 69.6046 59.6974 69.5193 59.7962C69.4397 59.895 69.346 59.9444 69.238 59.9444C69.1243 59.9444 69.0305 59.8889 68.9566 59.7777C68.8828 59.6603 68.8458 59.4595 68.8458 59.1754C68.8458 58.4774 68.8202 57.7578 68.7691 57.0165C68.7179 56.2691 68.6384 55.4846 68.5304 54.6631C68.3371 55.1696 68.1297 55.6205 67.908 56.0158C67.55 56.6583 67.2459 56.9795 66.9958 56.9795C66.7401 56.9795 66.4303 56.6583 66.0666 56.0158C65.8222 55.5835 65.609 55.1264 65.4272 54.6445C65.3419 55.3425 65.2737 56.0622 65.2226 56.8034C65.1714 57.5385 65.1458 58.2736 65.1458 59.0086L65.1373 59.4812C65.1373 59.6047 65.0947 59.7128 65.0094 59.8055C64.9242 59.8981 64.8247 59.9444 64.7111 59.9444C64.586 59.9444 64.4866 59.8641 64.4127 59.7035C64.3615 59.5738 64.3359 59.4287 64.3359 59.2681C64.3359 58.5268 64.3928 57.4273 64.5064 55.9695C64.6258 54.5117 64.7736 53.6933 64.9498 53.5141C65.0521 53.403 65.1657 53.3474 65.2908 53.3474C65.4954 53.3474 65.7057 53.5574 65.9216 53.9774L66.3138 54.904C66.507 55.3055 66.7372 55.6792 67.0044 56.0251Z" fill="#F9DF7A"/>
<path d="M70.7478 53.9218C70.7478 53.5389 70.8672 53.3474 71.1059 53.3474C71.3162 53.3474 71.4497 53.4616 71.5066 53.6902L71.5322 54.311L71.5407 58.4805L71.5492 58.7863L71.5663 59.0827C71.5663 59.6263 71.4156 59.8981 71.1144 59.8981C70.87 59.8981 70.7478 59.5831 70.7478 58.953L70.7649 58.3971L70.7478 57.5169V53.9218Z" fill="#F9DF7A"/>
<path d="M72.4075 53.8199C72.4075 53.5172 72.5212 53.3659 72.7485 53.3659L72.902 53.3937C72.9986 53.4369 73.1151 53.5821 73.2515 53.8292C73.5471 54.3728 73.962 54.8546 74.4962 55.2746C75.0475 54.8422 75.4596 54.3511 75.7324 53.8014C75.8688 53.5234 76.0194 53.3844 76.1842 53.3844C76.2865 53.3844 76.3746 53.4246 76.4485 53.5049C76.5224 53.5852 76.5593 53.6778 76.5593 53.7828C76.5593 54.1164 76.3661 54.4932 75.9796 54.9132C75.8034 55.1047 75.4795 55.392 75.0077 55.7749C75.4511 56.0653 75.8631 56.6027 76.2439 57.3872C76.6304 58.1655 76.8236 58.848 76.8236 59.4348C76.8236 59.5646 76.781 59.6819 76.6957 59.7869C76.6162 59.8919 76.5167 59.9444 76.3974 59.9444C76.261 59.9444 76.1444 59.8703 76.0478 59.7221C75.9967 59.6294 75.954 59.3978 75.9199 59.0272C75.9199 58.8048 75.8745 58.567 75.7835 58.3137C75.6983 58.0543 75.5761 57.7856 75.417 57.5076C75.1612 57.0381 74.8372 56.6243 74.4451 56.266C73.6948 56.9517 73.2146 57.7269 73.0043 58.5917C72.9872 58.7029 72.9702 58.8079 72.9531 58.9067C72.9361 59.0055 72.9134 59.1229 72.8849 59.2588C72.8281 59.5738 72.7599 59.7684 72.6803 59.8425C72.6008 59.9105 72.5155 59.9444 72.4246 59.9444C72.1461 59.9444 72.0068 59.753 72.0068 59.37C72.0068 58.8017 72.2114 58.1377 72.6207 57.3779C72.9958 56.6799 73.422 56.1425 73.8995 55.7657C73.5584 55.5248 73.2487 55.2437 72.9702 54.9225C72.5951 54.4839 72.4075 54.1164 72.4075 53.8199Z" fill="#F9DF7A"/>
<path d="M82.529 53.4122C83.4725 53.4122 83.9442 53.8076 83.9442 54.5982C83.9442 55.1603 83.7425 55.6329 83.3389 56.0158C83.6686 56.3309 83.9101 56.6212 84.0636 56.8868C84.2455 57.2265 84.3364 57.6064 84.3364 58.0265C84.3364 58.5948 84.1375 59.055 83.7396 59.407C83.3645 59.7283 82.9098 59.8889 82.3756 59.8889H80.3295C80.0056 59.8889 79.8436 59.7005 79.8436 59.3237V53.8848C79.8436 53.5697 80.0681 53.4122 80.5171 53.4122H82.529ZM82.3671 59.1198C82.6967 59.1198 82.9724 59.0117 83.194 58.7955C83.4157 58.5793 83.5265 58.2952 83.5265 57.9431C83.5265 57.2574 83.1827 56.72 82.4949 56.3309C82.0118 56.0714 81.3838 55.8985 80.6109 55.812V59.1198H82.3671ZM82.7592 55.6267C83.0434 55.3302 83.1855 55.043 83.1855 54.765C83.1855 54.3635 82.8956 54.1627 82.3159 54.1627H80.6109V55.1078C81.0258 55.1078 81.4208 55.1572 81.7959 55.2561C82.0971 55.3364 82.4182 55.4599 82.7592 55.6267Z" fill="#F9DF7A"/>
<path d="M85.1592 53.9218C85.1592 53.5389 85.2786 53.3474 85.5173 53.3474C85.7276 53.3474 85.8612 53.4616 85.918 53.6902L85.9436 54.311L85.9521 58.4805L85.9606 58.7863L85.9777 59.0827C85.9777 59.6263 85.827 59.8981 85.5258 59.8981C85.2814 59.8981 85.1592 59.5831 85.1592 58.953L85.1763 58.3971L85.1592 57.5169V53.9218Z" fill="#F9DF7A"/>
<path d="M90.2632 57.5261C90.2632 56.859 89.925 56.4297 89.2486 56.2382L87.3731 55.9232C86.6967 55.7441 86.3586 55.3364 86.3586 54.7001C86.3586 54.2986 86.5205 53.9774 86.8445 53.7365C87.123 53.5389 87.4612 53.44 87.859 53.44H90.1353C90.2319 53.44 90.3228 53.474 90.4081 53.5419C90.4933 53.6099 90.536 53.6995 90.536 53.8106C90.536 54.0948 90.212 54.2369 89.5641 54.2369L88.183 54.1998C87.5123 54.1998 87.177 54.3511 87.177 54.6538C87.177 54.9503 87.5805 55.1511 88.3876 55.2561C89.1947 55.3549 89.7573 55.4877 90.0756 55.6545C90.7519 56.0004 91.0901 56.6397 91.0901 57.5725C91.0901 57.9122 90.9935 58.2736 90.8002 58.6565C90.59 59.0827 90.2575 59.4132 89.8028 59.6479C89.3993 59.8518 88.9474 59.9537 88.4473 59.9537H86.6825C86.5745 59.9537 86.4808 59.9105 86.4012 59.824C86.3159 59.7313 86.2733 59.6294 86.2733 59.5182C86.2733 59.2588 86.6143 59.1291 87.2964 59.1291H87.68L88.0636 59.1383C88.848 59.1383 89.3822 59.021 89.6664 58.7863C90.0642 58.4589 90.2632 58.0388 90.2632 57.5261Z" fill="#F9DF7A"/>
<path d="M95.4892 53.8384C95.4892 53.9434 95.4409 54.0361 95.3443 54.1164C95.2988 54.1535 95.2505 54.1844 95.1994 54.2091C95.1482 54.2276 95.0971 54.2369 95.0459 54.2369H93.7586L93.7756 57.4335L93.7927 58.3971C93.7927 59.2186 93.7359 59.6912 93.6222 59.8147C93.5426 59.9012 93.4687 59.9475 93.4005 59.9537C93.1277 59.9537 92.9913 59.7746 92.9913 59.4163V54.2276L91.7125 54.2369C91.6159 54.2369 91.525 54.1967 91.4397 54.1164C91.3488 54.0361 91.2976 53.9434 91.2863 53.8384C91.2863 53.5666 91.434 53.4308 91.7296 53.4308H91.8234L91.9086 53.44H95.0374C95.3386 53.44 95.4892 53.5728 95.4892 53.8384Z" fill="#F9DF7A"/>
<path d="M96.4986 53.4308H98.9368C99.3404 53.4308 99.6785 53.5234 99.9514 53.7087C100.253 53.9249 100.403 54.2461 100.403 54.6723C100.403 54.9874 100.324 55.2808 100.164 55.5526C100.045 55.7564 99.8462 55.9819 99.5677 56.229C99.8917 56.5069 100.19 56.998 100.463 57.7022C100.719 58.3693 100.847 58.9469 100.847 59.4348C100.847 59.7746 100.719 59.9444 100.463 59.9444C100.236 59.9444 100.093 59.8086 100.037 59.5368L99.9343 58.777C99.7467 57.8875 99.3745 57.1864 98.8175 56.6737C98.2605 56.161 97.57 55.9047 96.7458 55.9047L96.7373 57.5539L96.7203 59.2125C96.7203 59.7005 96.5924 59.9444 96.3366 59.9444C96.2173 59.9444 96.1235 59.895 96.0553 59.7962C95.9871 59.6912 95.953 59.5707 95.953 59.4348L95.9615 53.9774C95.9615 53.613 96.1405 53.4308 96.4986 53.4308ZM98.9283 55.7008C99.3546 55.4784 99.5677 55.1665 99.5677 54.765C99.5677 54.3944 99.2864 54.2091 98.7237 54.2091L96.7458 54.2183L96.7203 54.4963L96.7117 55.0986C97.0982 55.0986 97.4762 55.1511 97.8456 55.2561C98.2207 55.3611 98.5816 55.5093 98.9283 55.7008Z" fill="#F9DF7A"/>
<path d="M103.989 53.3103C104.784 53.3103 105.438 53.6439 105.949 54.311C106.421 54.9349 106.657 55.6916 106.657 56.581C106.657 57.4891 106.41 58.2766 105.915 58.9438C105.387 59.6479 104.71 60 103.886 60C103.062 60 102.389 59.6696 101.866 59.0086C101.371 58.3786 101.124 57.6095 101.124 56.7015C101.124 55.7626 101.38 54.9688 101.891 54.3202C102.431 53.647 103.13 53.3103 103.989 53.3103ZM103.895 59.2032C104.503 59.2032 104.995 58.9129 105.37 58.3322C105.694 57.8319 105.856 57.2327 105.856 56.5347C105.856 55.88 105.688 55.3148 105.353 54.8391C104.983 54.3141 104.509 54.0515 103.929 54.0515C103.321 54.0515 102.829 54.3295 102.454 54.8854C102.113 55.3858 101.942 55.9819 101.942 56.6737C101.942 57.3841 102.102 57.9678 102.42 58.4249C102.778 58.9438 103.27 59.2032 103.895 59.2032Z" fill="#F9DF7A"/>
</svg>
