<svg width="288" height="288" viewBox="0 0 288 288" fill="none" xmlns="http://www.w3.org/2000/svg">
<rect width="288" height="288" rx="116" fill="#8D2D2D"/>
<path d="M228.424 110.87C224.78 109.925 221.815 111.988 220.281 116.492C220.001 117.307 219.729 118.127 219.464 118.951C216.301 128.831 212.653 138.518 207.705 147.671C204.935 152.802 201.762 157.654 197.519 161.724C197.098 162.125 196.711 162.861 195.97 162.46C195.413 162.153 195.593 161.478 195.588 160.949C195.545 157.574 195.522 154.199 195.493 150.824C195.069 140.439 193.544 130.242 190.122 120.414C188.233 115.042 185.557 110.062 181.153 106.253C175.323 101.188 168.261 99.8377 160.902 100.588C153.349 101.348 146.891 104.516 142.728 111.28C140.715 114.676 139.722 118.58 139.867 122.524C140.113 129.992 141.755 137.271 142.898 144.621C143.903 151.117 144.857 157.593 144.196 164.244C143.539 170.329 141.895 176.267 139.329 181.823C137.639 184.505 135.595 186.771 132.546 187.993C130.029 189.067 127.309 189.583 124.573 189.506C121.838 189.428 119.151 188.759 116.699 187.545C113.542 185.95 110.524 184.093 107.678 181.993C98.4447 175.054 90.5945 166.756 83.5704 157.626C77.3063 149.441 71.6417 140.873 68.0541 131.125C66.8645 127.892 66.0667 124.517 64.9197 121.259C64.1974 119.201 62.7152 117.913 60.3502 117.785C57.8672 117.653 56.1018 118.696 54.9075 120.783C54.4034 121.583 54.0976 122.493 54.0153 123.436C53.627 124.181 53.4834 125.03 53.6046 125.862C53.489 127.435 53.7144 129.015 54.2655 130.493C60.2605 149.148 68.0022 166.916 80.9222 181.993C89.4852 191.977 99.115 200.663 111.351 206.011C131.521 214.834 151.739 214.673 171.551 205.232C185.977 198.359 197.434 187.625 207.361 175.215C216.689 163.555 222.806 150.135 228.655 136.573C230.959 131.229 232.861 125.749 233.55 119.914C234.027 115.85 231.742 111.729 228.424 110.87ZM164.225 146.273C163.961 145.041 163.238 143.441 165.136 142.908C167.189 142.318 167.874 143.804 168.341 145.447C169.381 149.162 169.8 153.024 169.583 156.876C169.828 161.369 169.111 165.774 168.209 170.168C167.864 171.873 166.967 172.675 165.245 172.345C163.356 171.986 163.791 170.631 164.074 169.385C165.814 161.787 165.872 153.901 164.244 146.278L164.225 146.273Z" fill="#FCE276"/>
<path d="M183.046 97.8129C186.265 98.3113 189.558 98.023 192.642 96.9727C193.806 96.5797 194.809 95.8153 195.497 94.797C196.184 93.7788 196.518 92.5629 196.447 91.3364C196.362 88.9195 194.833 88.0321 192.392 88.0321C194.337 84.9968 195.168 82.0559 193.874 78.846C193.242 77.2835 192.142 76.16 190.41 76.0137C188.677 75.8673 187.629 76.9153 186.836 78.2748C186.026 79.6256 185.471 81.1136 185.198 82.6648C184.575 86.5404 182.89 89.958 180.789 93.2246C179.604 95.0751 178.556 97.001 177.135 99.4368C182.422 96.9774 186.392 93.7722 190.428 90.6614C189.111 93.9988 186.128 95.5707 183.046 97.8129Z" fill="#FCE276"/>
<path d="M66.4492 110.124C52.1886 103.836 46.9771 111.011 46 123.025C47.8174 120.311 49.5734 117.903 51.0982 115.364C52.9391 112.281 55.7478 111.082 59.123 110.766C61.3464 110.558 63.6169 110.369 66.4492 110.124Z" fill="#FCE276"/>
<path d="M221.81 104.535C224.001 104.733 226.016 105.007 228.046 105.087C232.101 105.262 235.273 106.838 237.44 110.383C238.856 112.715 240.475 114.929 242 117.19C240.277 102.996 234.353 99.2098 221.81 104.535Z" fill="#FCE276"/>
</svg>
