<svg width="51" height="51" viewBox="0 0 51 51" fill="none" xmlns="http://www.w3.org/2000/svg">
<g clip-path="url(#clip0_442_16677)">
<path d="M45.7376 25.1201C45.7275 30.0828 43.9062 34.8711 40.6157 38.586C37.3251 42.3009 32.7916 44.6869 27.8665 45.2959C27.7566 45.3067 27.6456 45.2946 27.5406 45.2605C27.4355 45.2263 27.3387 45.1708 27.2562 45.0974C27.1736 45.0241 27.1072 44.9344 27.0609 44.8341C27.0147 44.7338 26.9897 44.625 26.9876 44.5146V29.8076H31.6751C31.8887 29.808 32.1002 29.7646 32.2964 29.68C32.4927 29.5955 32.6695 29.4716 32.8159 29.316C32.9624 29.1604 33.0753 28.9764 33.1479 28.7754C33.2204 28.5744 33.2509 28.3607 33.2376 28.1474C33.203 27.7434 33.0165 27.3675 32.7156 27.0957C32.4147 26.8238 32.0219 26.6762 31.6165 26.6826H26.9876V21.9951C26.9876 21.1663 27.3168 20.3714 27.9029 19.7854C28.4889 19.1993 29.2838 18.8701 30.1126 18.8701H33.2376C33.4512 18.8705 33.6627 18.8271 33.8589 18.7425C34.0552 18.658 34.232 18.5341 34.3784 18.3785C34.5249 18.2229 34.6378 18.0389 34.7104 17.8379C34.7829 17.6369 34.8134 17.4232 34.8001 17.2099C34.7655 16.8059 34.579 16.43 34.2781 16.1582C33.9772 15.8863 33.5844 15.7387 33.179 15.7451H30.1126C28.455 15.7451 26.8652 16.4036 25.6931 17.5757C24.521 18.7478 23.8626 20.3375 23.8626 21.9951V26.6826H19.1751C18.9614 26.6822 18.7499 26.7256 18.5537 26.8101C18.3574 26.8947 18.1806 27.0186 18.0342 27.1742C17.8877 27.3298 17.7748 27.5138 17.7023 27.7148C17.6297 27.9158 17.5992 28.1295 17.6126 28.3428C17.6471 28.7468 17.8337 29.1227 18.1345 29.3945C18.4354 29.6664 18.8282 29.814 19.2337 29.8076H23.8626V44.5146C23.8631 44.6241 23.8406 44.7325 23.7966 44.8328C23.7525 44.9331 23.6879 45.023 23.6068 45.0966C23.5258 45.1703 23.4302 45.2261 23.3262 45.2604C23.2222 45.2948 23.1122 45.3068 23.0032 45.2959C12.6907 44.0459 4.72194 35.081 5.13209 24.3584C5.36233 19.063 7.65329 14.0674 11.5159 10.4379C15.3786 6.80834 20.507 4.83239 25.8064 4.9318C31.1058 5.03121 36.1565 7.19811 39.8803 10.97C43.6041 14.7418 45.7061 19.8198 45.7376 25.1201Z" fill="#FD9038" style="mix-blend-mode:overlay"/>
</g>
<defs>
<clipPath id="clip0_442_16677">
<rect width="50" height="50" fill="white" transform="translate(0.425049 0.120117)"/>
</clipPath>
</defs>
</svg>
