<svg width="1440" height="511" viewBox="0 0 1440 511" fill="none" xmlns="http://www.w3.org/2000/svg">
<g clip-path="url(#clip0_442_16636)">
<path d="M1479.85 471.21C1471.62 480.74 1464.41 480.54 1456.56 470.8C1444.25 455.51 1432.2 440.02 1421.67 423.43C1417.67 417.11 1417.78 415.28 1421.55 411.07C1423.62 408.75 1425.46 408.49 1427.91 410.55C1435.73 417.021 1443.16 423.939 1450.18 431.27C1458.5 440.11 1466.77 449.02 1475 458C1476.78 460 1478.27 462.17 1479.9 464.27L1479.85 471.21Z" fill="#FD9038"/>
<path d="M699.47 510.12C696.61 505.12 697.47 503.28 703.35 503.12C708.84 502.97 714.35 502.98 719.76 502.12C726.58 501.03 730.96 496.36 731.29 489.71C731.58 483.6 727.92 479.34 720.84 477.85C716.29 476.85 711.65 476.35 707.11 475.33C700.69 473.88 698.11 470.59 698.37 464.54C698.412 462.01 699.405 459.589 701.15 457.756C702.895 455.924 705.265 454.815 707.79 454.65C715.06 454.05 722.41 454.38 729.73 454.38C731.33 454.38 732.73 455.09 733.06 456.82C733.42 458.82 732.06 459.82 730.32 460.38C726.26 461.74 722.06 461 717.93 461.14C714.93 461.24 711.93 461.14 708.93 461.43C707.23 461.57 705.6 462.35 705.34 464.33C705.08 466.31 706.55 467.33 708.15 467.93C711.75 469.32 715.54 469.77 719.33 470.38C727.65 471.72 735.33 473.95 737.62 483.8C740.35 495.59 733.62 506.49 721.74 509.01C720.29 509.32 718.86 509.75 717.42 510.12H699.47Z" fill="#FD9038"/>
<path d="M757.42 510.12C754.71 508.32 754.42 505.63 754.42 502.67C754.49 491.22 754.42 479.76 754.42 468.31C754.42 461.31 754.42 461.31 747.62 461.18C747.12 461.18 746.62 461.18 746.12 461.18C743.58 461.04 740.63 461.01 740.64 457.58C740.64 453.94 743.79 454.32 746.22 454.3C754.027 454.24 761.843 454.24 769.67 454.3C772.14 454.3 775.19 454.1 775.14 457.72C775.14 460.79 772.39 461.28 770.01 461.15C760.19 460.62 761.33 462.21 761.31 470.45C761.31 480.25 761.31 490.047 761.31 499.84C761.31 503.57 760.79 507.13 758.31 510.14L757.42 510.12Z" fill="#FD9038"/>
<path d="M130.92 438.2C89.92 438.2 48.98 438.14 8.01004 438.2C0.180046 438.2 -7.61995 437.83 -15.42 437.28C-29.95 436.28 -41.37 419.58 -38.58 403.85C-36.46 391.94 -27.5 380 -10.09 380.11C73.84 380.61 157.77 380.26 241.7 380.7C257.7 380.78 273.65 381.16 289.62 381.33C301.81 381.46 311.45 376.98 316.75 365.5C322.05 354.02 320.75 342.8 312.85 332.73C307.85 326.29 301.01 323.44 292.79 323.46C258.48 323.55 224.17 323.02 189.87 323.62C144.5 324.42 112.35 292.31 106.2 251.9C100.83 216.63 111.36 186.7 140.07 164.48C152.25 154.92 167.316 149.779 182.8 149.9C227.8 149.9 272.72 149.9 317.69 149.9C333.51 149.9 344.76 161.77 344.83 178.18C344.89 195.32 333.77 207.69 317.73 207.74C273.93 207.86 230.13 207.74 186.34 207.8C170.4 207.8 159.68 218.46 158.27 235.5C157.13 249.28 167.39 262.65 181.2 265.17C183.847 265.566 186.525 265.72 189.2 265.63C222.5 265.63 255.83 266.38 289.11 265.45C324.77 264.45 355.88 289.05 366.36 320.89C377.53 354.83 372.19 386.09 348.75 413.27C336.08 427.97 319.43 436.33 299.75 438.41C280.93 440.41 262.18 437.86 243.38 438.29C224.58 438.72 205.75 438.29 186.93 438.29C168.263 438.29 149.597 438.29 130.93 438.29L130.92 438.2Z" fill="#FD9038"/>
<path d="M908.23 346.51C907.77 338.87 908.87 329.89 907.57 320.93C906.914 316.14 905.129 311.574 902.36 307.61C882.73 279.54 863.21 251.39 843.47 223.4C833.83 209.74 832.59 197.28 840.29 185.4C850.29 169.97 872.6 169.45 882.84 184.76C893.19 200.23 902.98 216.09 913.01 231.76C920.64 243.68 932.47 247.88 944.86 243C950.17 240.91 954.02 237.12 957.01 232.33C966.17 217.66 975.27 202.95 984.58 188.38C993.67 174.16 1007.53 169.88 1019.81 177.22C1026.24 181.089 1030.91 187.325 1032.8 194.592C1034.69 201.858 1033.65 209.576 1029.92 216.09C1024.82 225.01 1018.52 233.25 1012.68 241.74C997.49 263.74 982.36 285.87 966.97 307.74C961.71 315.24 961.73 323.74 961.48 332.12C961.12 344.12 961.48 356.05 961.37 368.02C961.26 383.92 950.29 395.34 935.22 395.37C919.76 395.37 908.46 384.05 908.22 368.17C908.15 361.45 908.23 354.64 908.23 346.51Z" fill="#FD9038"/>
<path d="M1166.11 169.58C1168.82 172.2 1169.66 175.14 1170.89 177.8C1177.23 191.54 1183.42 205.35 1189.73 219.09C1193.22 226.69 1192.99 234.09 1189.61 241.72C1183.25 255.99 1177.11 270.36 1170.87 284.72C1168.03 291.26 1168.51 297.64 1171.66 303.96C1172.88 306.624 1174.76 308.925 1177.14 310.637C1179.52 312.348 1182.3 313.411 1185.21 313.72C1196.49 315.28 1207.83 314.27 1219.14 314.46C1231.79 314.67 1240.14 322.84 1240.05 335.28C1239.98 347.37 1231.56 355.48 1218.93 355.51C1197.79 355.51 1176.64 355.6 1155.49 355.51C1146.14 355.46 1139.49 359.24 1135.84 367.96C1133.58 373.32 1131.22 378.64 1128.84 383.96C1125.35 391.72 1119.47 395.78 1110.84 395.57C1106.18 395.289 1101.5 395.309 1096.84 395.63C1079.51 397.46 1070.84 379.34 1077.31 365.42C1080.25 359.09 1083.05 352.69 1085.93 346.33C1111.93 288.75 1137.93 231.177 1163.93 173.61C1164.45 172.35 1165.18 171.25 1166.11 169.58Z" fill="#FD9038"/>
<path d="M900.31 481.93C900.41 470.8 898.83 470.53 911.42 472.08C932.2 474.64 953.08 476.42 973.71 480.17C975.19 480.44 976.71 480.69 978.11 481.08C979.51 481.47 982.02 481.14 981.97 483.23C981.97 484.82 979.68 484.84 978.27 485.05C971.04 486.16 963.82 487.35 956.55 488.14C941.03 489.83 925.47 491.31 909.93 492.87C908.93 492.96 907.93 493.06 906.93 493.1C900.8 493.35 900.35 492.93 900.29 486.92C900.3 485.25 900.31 483.59 900.31 481.93Z" fill="#FD9038"/>
<path d="M403.27 483.87C410.53 481.06 417.59 480.22 424.56 479.32C443.18 476.92 461.84 474.86 480.48 472.54C484.12 472.09 485.84 473.12 485.71 476.95C485.57 481.1 485.56 485.26 485.71 489.41C485.85 493.17 484.06 494.49 480.54 494.18C467.46 493.02 454.37 492.07 441.32 490.7C430.42 489.56 419.47 488.59 408.72 486.3C407.12 486 405.4 485.94 403.27 483.87Z" fill="#FD9038"/>
<path d="M545.53 466.45C542.58 471.77 540.83 476.45 537.75 480.38C533.94 485.21 531.28 485.26 527.51 480.38C526.029 478.371 524.692 476.259 523.51 474.06C522.367 471.633 520.856 469.397 519.03 467.43C518.56 471.67 517.9 475.91 517.64 480.17C517.17 488.11 516.94 496.07 516.59 504.02C516.49 506.19 516.53 508.74 513.59 508.84C510.65 508.94 510.05 506.3 510.06 504.26C510.06 496.81 510.18 489.33 510.87 481.92C511.56 474.51 511.72 467 513.52 459.71C514.16 457.12 514.72 454.08 517.97 453.84C520.87 453.62 522.06 456.33 523.21 458.51C525.69 463.2 527.21 468.33 530.21 472.8C532.04 475.54 533.33 475.74 535.21 472.91C538.13 468.59 539.85 463.75 541.85 459.01C542.85 456.56 543.97 453.62 547.16 453.84C550.35 454.06 551.04 457.11 551.61 459.72C553.49 468.34 553.61 477.17 554.44 485.91C555.01 491.68 555.21 497.49 555.44 503.29C555.52 505.78 555.38 508.82 552 508.9C548.44 508.97 548.6 505.84 548.59 503.38C548.54 492.09 547.54 480.86 546.46 469.64C546.224 468.557 545.913 467.491 545.53 466.45Z" fill="#FD9038"/>
<path d="M575.48 502.92C576.77 493.46 581.26 485.19 587.61 477.99C590.38 474.85 590.28 472.93 587.22 470.32C583.94 467.51 580.91 464.37 579.44 460.14C578.68 457.96 578.44 455.59 580.67 454.34C582.9 453.09 584.41 455.2 585.42 456.79C587.598 460.123 590 463.304 592.61 466.31C595.43 469.66 597.99 469.52 600.87 466.38C603.346 463.47 605.589 460.371 607.58 457.11C608.73 455.38 610.15 453.69 612.44 454.74C615.12 455.95 614.33 458.29 613.58 460.35C611.85 465.06 608.29 468.35 604.49 471.35C601.79 473.47 601.87 474.99 604.21 477.26C610.63 483.49 613.88 491.45 615.91 499.96C616.313 501.733 616.448 503.557 616.31 505.37C616.19 507.37 615.16 508.9 612.92 508.97C610.92 509.03 609.92 507.73 609.54 505.97C609.14 504.02 608.89 502.05 608.54 500.09C607.25 492.67 603.63 486.44 598.7 480.86C596.77 478.68 595.22 478.86 593.44 481.04C588.72 486.73 584.71 492.76 583.6 500.29C583.4 501.6 583.11 502.9 582.79 504.19C582.18 506.61 581.79 509.53 578.27 508.89C575.17 508.29 575.74 505.45 575.48 502.92Z" fill="#FD9038"/>
<path d="M1102.19 0C1105.59 1.46 1108.03 4 1110.44 6.29C1123.4 18.6833 1136.24 31.19 1148.97 43.81C1153.97 48.72 1153.77 49.29 1148.36 53.81C1140.36 60.46 1140.42 60.44 1134.48 51.86C1124 36.71 1113.48 21.56 1104.1 5.71C1103.14 4.07 1101.58 2.57 1102.19 0Z" fill="#FD9038"/>
<path d="M571.58 481.69C571.58 488.5 571.58 495.31 571.58 502.11C571.58 503.77 571.72 505.51 570.74 506.95C569.14 509.33 567.32 509.53 565.74 507C564.62 505.25 564.67 503.19 564.67 501.19C564.67 487.57 564.67 473.95 564.67 460.33C564.646 459.168 564.733 458.006 564.93 456.86C565.22 455.31 566 453.97 567.75 453.8C568.171 453.753 568.597 453.796 569 453.926C569.403 454.056 569.774 454.27 570.088 454.553C570.403 454.836 570.654 455.183 570.825 455.57C570.996 455.958 571.083 456.377 571.08 456.8C571.44 460.8 571.5 464.74 571.57 468.72C571.65 473.04 571.57 477.36 571.57 481.72L571.58 481.69Z" fill="#FD9038"/>
<path d="M694.48 481.57C694.48 488.71 694.48 495.84 694.48 502.98C694.48 505.48 694.36 508.61 691.04 508.59C688.04 508.59 687.79 505.41 687.77 503.22C687.62 488.29 687.63 473.36 687.77 458.42C687.77 456.28 688.36 453.71 691.22 453.84C694.08 453.97 694.42 456.43 694.44 458.67C694.5 466.3 694.44 473.94 694.44 481.57H694.48Z" fill="#FD9038"/>
<path d="M1303 204.8L1301.15 205.8H1294.22C1297 203.73 1299.93 203.28 1303 204.8Z" fill="#E3E3E3"/>
<path d="M867.64 465.86C859.08 449.8 839.3 448.69 829.04 463.74C818.13 479.74 824.13 500.63 842.35 510.12H852.35C872.6 502.4 874.41 478.58 867.64 465.86ZM861.48 493.48C858.62 499.61 853.97 503.48 846.66 503.18C839.35 502.88 835.31 498.49 832.66 492.3C831.25 489.01 831.24 485.52 831.29 481.53C830.986 476.866 832.065 472.215 834.39 468.16C837.48 462.6 842.13 459.27 848.45 459.56C855.05 459.87 859.37 464.14 862 469.88C865.59 477.75 865.08 485.77 861.48 493.48Z" fill="#FD9038"/>
<path d="M784.13 175.18C776.41 173.18 770.13 177.55 766.88 187.09C766.287 188.817 765.71 190.553 765.15 192.3C758.45 213.23 750.72 233.75 740.24 253.14C734.37 264.01 727.65 274.29 718.66 282.91C717.77 283.76 716.95 285.32 715.38 284.47C714.2 283.82 714.58 282.39 714.57 281.27C714.48 274.12 714.43 266.97 714.37 259.82C713.47 237.82 710.24 216.22 702.99 195.4C698.99 184.02 693.32 173.47 683.99 165.4C671.64 154.67 656.68 151.81 641.09 153.4C625.09 155.01 611.41 161.72 602.59 176.05C598.327 183.244 596.223 191.513 596.53 199.87C597.05 215.69 600.53 231.11 602.95 246.68C605.08 260.44 607.1 274.16 605.7 288.25C604.309 301.141 600.826 313.719 595.39 325.49C591.81 331.17 587.48 335.97 581.02 338.56C575.688 340.835 569.926 341.929 564.131 341.765C558.336 341.601 552.645 340.183 547.45 337.61C540.762 334.232 534.369 330.299 528.34 325.85C508.78 311.15 492.15 293.57 477.27 274.23C464 256.89 452 238.74 444.4 218.09C441.88 211.24 440.19 204.09 437.76 197.19C436.23 192.83 433.09 190.1 428.08 189.83C422.82 189.55 419.08 191.76 416.55 196.18C415.482 197.877 414.834 199.803 414.66 201.8C413.838 203.38 413.533 205.178 413.79 206.94C413.545 210.273 414.023 213.619 415.19 216.75C427.89 256.27 444.29 293.91 471.66 325.85C489.8 347 510.2 365.4 536.12 376.73C578.85 395.42 621.68 395.08 663.65 375.08C694.21 360.52 718.48 337.78 739.51 311.49C759.27 286.79 772.23 258.36 784.62 229.63C789.5 218.31 793.53 206.7 794.99 194.34C796 185.73 791.16 177 784.13 175.18ZM648.13 250.18C647.57 247.57 646.04 244.18 650.06 243.05C654.41 241.8 655.86 244.95 656.85 248.43C659.052 256.301 659.941 264.48 659.48 272.64C660 282.16 658.48 291.49 656.57 300.8C655.84 304.41 653.94 306.11 650.29 305.41C646.29 304.65 647.21 301.78 647.81 299.14C651.497 283.045 651.62 266.338 648.17 250.19L648.13 250.18Z" fill="#FD9038"/>
<path d="M688 147.52C694.821 148.576 701.796 147.965 708.33 145.74C710.796 144.907 712.92 143.288 714.376 141.131C715.832 138.974 716.54 136.398 716.39 133.8C716.21 128.68 712.97 126.8 707.8 126.8C711.92 120.37 713.68 114.14 710.94 107.34C709.6 104.03 707.27 101.65 703.6 101.34C699.93 101.03 697.71 103.25 696.03 106.13C694.314 108.991 693.138 112.144 692.56 115.43C691.24 123.64 687.67 130.88 683.22 137.8C680.71 141.72 678.49 145.8 675.48 150.96C686.68 145.75 695.09 138.96 703.64 132.37C700.85 139.44 694.53 142.77 688 147.52Z" fill="#FD9038"/>
<path d="M441 173.6C410.79 160.28 399.75 175.48 397.68 200.93C401.53 195.18 405.25 190.08 408.48 184.7C412.38 178.17 418.33 175.63 425.48 174.96C430.19 174.52 435 174.12 441 173.6Z" fill="#FD9038"/>
<path d="M770.12 161.76C774.76 162.18 779.03 162.76 783.33 162.93C791.92 163.3 798.64 166.64 803.23 174.15C806.23 179.09 809.66 183.78 812.89 188.57C809.24 158.5 796.69 150.48 770.12 161.76Z" fill="#FD9038"/>
<path d="M1285.18 134.9C1284.7 126.68 1280.83 121.58 1273.63 118.52C1267.99 116.12 1262.03 115.71 1255.94 116.04C1248.95 115.509 1241.95 116.765 1235.58 119.69C1222.93 125.661 1211.12 133.277 1200.46 142.34C1195.23 146.81 1189.27 151.2 1190.59 159.58C1190.65 159.99 1190.39 160.75 1190.09 160.87C1184.4 163.13 1187.03 167.71 1187.75 171.06C1194.53 202.63 1231.75 216.14 1256.61 195.43C1275.16 180 1286.66 160.37 1285.18 134.9ZM1205.55 178.81C1217.81 184.52 1229.69 192.05 1244.42 184.54C1236.59 196.34 1219.75 193.68 1205.55 178.81Z" fill="#FD9038"/>
<path d="M1363.12 262.36C1352.83 259.79 1342.45 260.11 1332.71 264.11C1316.71 270.68 1302.71 280.54 1289.97 292.21C1288.18 293.727 1286.8 295.664 1285.94 297.847C1285.09 300.03 1284.79 302.392 1285.07 304.72C1285.16 305.54 1286.47 307.33 1284.17 307.19C1280.47 306.97 1281 309.64 1281.26 311.58C1283.61 329.58 1297.26 349.48 1321.47 350.42C1327.83 350.782 1334.18 349.77 1340.11 347.454C1346.04 345.139 1351.4 341.573 1355.83 337C1369.83 322.89 1378.45 306.07 1379.97 291.52C1379.84 271.14 1376 265.55 1363.12 262.36ZM1300 324.07C1313.1 329.88 1325.44 338.58 1340.93 328.07C1331.59 341.68 1315 340.34 1300 324.07Z" fill="#FD9038"/>
<path d="M1419.91 348.86C1415.45 344.34 1410.36 342.52 1403.86 343.92C1415.03 345.6 1418.06 348.92 1420.08 360.09C1421.05 364.996 1420.9 370.058 1419.65 374.9C1416.55 386.46 1410.54 396.19 1400.11 402.59C1398.11 403.8 1394.71 405.7 1393.3 403.59C1391.7 401.13 1395.3 399.59 1397.08 398.16C1404 392.29 1410.08 385.74 1414.28 377.67C1418 370.59 1417.42 363.91 1412.28 357.73C1406.62 350.836 1398.66 346.219 1389.86 344.73C1384.93 343.83 1380.65 344.73 1376.86 348.86C1372.62 353.49 1367.42 357.22 1362.61 361.31C1361.79 362.01 1360.87 363.44 1359.72 362.31C1358.57 361.18 1359.91 360.15 1360.63 359.31C1368.79 350.1 1374.97 338.71 1387.85 334.69C1388.21 334.58 1388.41 333.97 1388.91 333.27C1388.43 333.074 1387.94 332.933 1387.43 332.85C1386.78 332.91 1386.13 333.07 1385.43 333.19C1367.84 336.38 1357.51 348.83 1347.93 362.34C1342.71 369.7 1342.93 376.9 1348.02 384.04C1351.87 389.45 1355.81 394.83 1360.02 399.92C1365.23 406.16 1370.25 412.66 1377.38 416.92C1381.5 419.4 1385.92 421.16 1390.64 419.02C1406.18 412.02 1419.16 402.09 1426.48 386.07C1432.61 372.83 1430.11 359.21 1419.91 348.86ZM1371.63 398.32C1365.72 391.93 1362.51 384.16 1361.06 375.65C1360.86 374.336 1360.91 372.997 1361.2 371.7C1361.71 369.37 1362.74 366.62 1365.2 366.52C1368.2 366.39 1367.47 369.69 1367.74 371.52C1368.74 378.41 1371.65 384.52 1375.1 390.41C1377.59 394.66 1381.73 396.76 1386.3 398.15C1387.49 398.51 1389.04 397.95 1389.83 399.42C1387.26 401.661 1383.91 402.802 1380.5 402.596C1377.1 402.39 1373.91 400.854 1371.63 398.32ZM1390.95 353.32C1391.06 351.32 1391.84 349.77 1394.16 349.76C1396.11 349.76 1400.4 354.37 1400.16 356.32C1399.92 358.7 1397.98 358.26 1396.64 358.44C1393.68 357.68 1390.74 357.16 1391 353.3L1390.95 353.32Z" fill="#FD9038"/>
<path d="M1211.47 66.13C1207.57 62.18 1202.91 60.01 1197.23 60.73C1205.23 61.65 1208.84 66.73 1210.71 73.73C1213.2 83.15 1212.64 92.49 1207.91 100.85C1203.41 108.85 1199.01 117.45 1189.16 120.51C1187.57 121.01 1185.4 122.71 1184.26 120.59C1183.38 118.95 1185.71 117.89 1186.81 116.77C1192.81 110.61 1199.57 105.08 1204.1 97.54C1209.81 88.04 1209.48 81.18 1202.1 73.01C1195.69 65.95 1187.33 62.4 1177.92 61.32C1174.61 60.94 1172.05 62.2 1169.55 64.7C1164.63 69.63 1159.18 74.03 1153.94 78.63C1153.2 79.28 1152.28 80.15 1151.32 79.48C1150.17 78.67 1151.04 77.6 1151.65 76.91C1159.65 67.8 1165.43 56.27 1178.19 52.19C1179.19 51.87 1180.46 51.5 1180.7 50.08C1177.47 49.763 1174.21 50.2189 1171.19 51.41C1155.37 56.88 1145.83 69.17 1137.68 82.73C1136.35 84.8911 1135.64 87.3805 1135.64 89.92C1135.64 92.4595 1136.35 94.949 1137.68 97.11C1146.01 110.57 1155.11 123.51 1168.02 133.11C1173.68 137.31 1179.84 138.24 1186.02 133.78C1187.8 132.544 1189.7 131.499 1191.7 130.66C1204.38 125.15 1212.08 114.81 1217.88 103C1224.1 90.41 1221.3 76.09 1211.47 66.13ZM1163.47 115.48C1157.14 108.88 1154.02 100.72 1152.47 91.91C1152.29 90.4314 1152.45 88.9316 1152.92 87.52C1153.59 85.21 1154.84 82.73 1157.54 83.12C1159.88 83.46 1158.89 86.12 1159.13 87.8C1160.28 95.3895 1163.24 102.592 1167.75 108.8C1171.11 113.5 1176.52 114.8 1182.5 115.8C1175.5 121 1168.54 120.73 1163.5 115.48H1163.47ZM1182.25 70.17C1182.35 68.17 1183.36 66.68 1185.55 66.55C1187.55 66.43 1191.71 71.05 1191.55 73.07C1191.4 75.24 1189.7 74.96 1188.33 75.2C1185.55 74.4 1182.07 74.43 1182.28 70.17H1182.25Z" fill="#FD9038"/>
<path d="M1303 204.8C1301.89 204.18 1301 204.03 1301.15 205.8C1305.95 207.11 1308.7 210.45 1310.1 215.01C1312.48 222.82 1313.1 230.75 1310.47 238.55C1307.02 248.84 1301.2 257.61 1291.82 263.46C1289.82 264.74 1286.05 266.86 1284.61 264.64C1282.96 262.12 1287.1 260.75 1288.66 258.83C1289.27 258.265 1289.92 257.744 1290.6 257.27C1296.93 251.54 1302.6 245.27 1306.16 237.41C1309.16 230.77 1308.61 224.65 1303.71 218.86C1297.74 211.599 1289.29 206.795 1280 205.37C1275.92 204.7 1272.45 205.51 1269.62 208.69C1264.95 213.94 1258.96 217.69 1253.84 222.42C1253.11 223.1 1252.16 223.9 1251.23 223.13C1250.13 222.24 1251.1 221.26 1251.71 220.59C1260.04 211.59 1265.61 199.59 1278.71 195.82C1279.3 195.65 1279.82 195.09 1279.17 194.08C1274.91 194.254 1270.74 195.371 1266.96 197.35C1253.64 203.69 1244.84 214.65 1237.55 226.93C1234.86 231.45 1235.17 236.61 1237.73 241.27C1243.29 251.38 1250.6 260.21 1258.43 268.61C1261.7 272.12 1265 275.68 1269.26 278.12C1273.52 280.56 1278.04 281.96 1282.62 279.93C1298.77 272.77 1311.62 262.08 1318.71 245.35C1325.31 229.84 1317.88 210.4 1303 204.8ZM1261.23 256.87C1256.48 250.19 1252.9 242.94 1252.93 234.43C1252.76 232.775 1253.11 231.107 1253.93 229.66C1254.79 228.44 1255.76 227.01 1257.46 227.39C1259.16 227.77 1258.77 229.45 1259.02 230.71C1259.46 233.318 1260.03 235.901 1260.73 238.45C1264.08 249.13 1268.82 258.58 1283 260.11C1273.18 265.6 1266.59 264.43 1261.23 256.87ZM1282.33 214.12C1282.51 212.27 1283.25 210.49 1285.62 210.5C1287.62 210.5 1292.23 215.62 1291.95 217.5C1291.62 219.78 1289.73 219.5 1288.33 219.61C1285.28 218.68 1281.94 218.25 1282.33 214.12Z" fill="#FD9038"/>
<path d="M675.63 480.05C673.19 477.31 673.12 475.62 675.02 472.42C679.44 464.97 678.71 453.72 664.88 454.18C659.88 454.34 654.88 454.18 649.88 454.18C643.56 454.26 642.51 455.26 642.45 461.37C642.39 468.02 642.45 474.67 642.45 481.37C642.45 488.68 642.45 496 642.45 503.31C642.45 507.22 644.23 509.16 648.2 509.13C652.87 509.08 657.53 509.04 662.2 509.13C669.63 509.32 676.01 507.04 679.11 500.02C682.21 493 680.79 485.86 675.63 480.05ZM648.63 463.57C648.8 460.93 650.42 460.27 652.68 460.29H658.16V460.17C660.483 460.154 662.804 460.284 665.11 460.56C670.2 461.46 672.03 466 669.24 470.34C668.24 471.91 667.01 472.85 665.12 471.94C661.02 469.94 656.59 469.21 652.17 468.5C649.18 468 648.5 466.23 648.66 463.57H648.63ZM673.46 493.83C673.05 498.83 670.32 501.83 665.29 502.14C661.16 502.39 656.99 502.14 652.85 502.25C649.94 502.3 648.56 500.96 648.59 498.05C648.59 494.74 648.59 491.43 648.59 488.11C648.59 484.96 648.59 481.81 648.59 478.66C648.59 475.66 649.8 474.39 652.91 475.04C658.81 476.26 664.59 477.68 669.04 482.14C670.626 483.619 671.852 485.441 672.624 487.468C673.395 489.495 673.691 491.671 673.49 493.83H673.46Z" fill="#FD9038"/>
<path d="M821.26 502.45C820.783 495.945 818.682 489.663 815.15 484.18C812.29 479.92 811.55 476.81 815.25 472.55C818.51 468.8 818.45 463.75 816.19 459.36C814.07 455.24 809.88 454.28 805.51 454.27C799.19 454.27 792.86 454.37 786.51 454.27C781.67 454.17 779.51 456.37 779.51 461.15C779.57 467.97 779.51 474.78 779.51 481.59H779.57C779.57 489.07 779.48 496.54 779.57 504.02C779.57 506.12 779.91 508.81 782.75 508.89C785.96 508.97 786.16 506.17 786.21 503.89C786.35 497.74 786.33 491.59 786.34 485.44C786.34 474.44 789.1 472.9 799.13 478.32C799.852 478.729 800.55 479.179 801.22 479.67C809.44 485.46 812.86 493.87 814.22 503.42C814.59 506.03 814.6 509.42 818.39 508.93C822.18 508.44 821.49 504.92 821.26 502.45ZM808.51 471C806.92 472.77 804.98 473.41 802.73 472.24C798.717 470.308 794.418 469.035 790 468.47C787.39 468.06 786.24 466.74 786.52 464.1C786.8 461.46 788.8 461.2 790.86 461.17C793.17 461.17 795.48 461.17 797.8 461.17V461.22C800.27 461.22 802.8 461.15 805.23 461.22C807.53 461.29 809.49 462.1 810.14 464.57C810.447 465.691 810.458 466.873 810.172 468C809.887 469.127 809.314 470.16 808.51 471Z" fill="#FD9038"/>
</g>
<defs>
<clipPath id="clip0_442_16636">
<rect width="1518.85" height="510.12" fill="white" transform="translate(-39)"/>
</clipPath>
</defs>
</svg>
