<svg width="1519" height="511" viewBox="0 0 1519 511" fill="none" xmlns="http://www.w3.org/2000/svg">
<g clip-path="url(#clip0_442_19384)">
<path d="M1518.85 471.21C1510.62 480.74 1503.41 480.54 1495.56 470.8C1483.25 455.51 1471.2 440.02 1460.67 423.43C1456.67 417.11 1456.78 415.28 1460.55 411.07C1462.62 408.75 1464.46 408.49 1466.91 410.55C1474.73 417.021 1482.16 423.939 1489.18 431.27C1497.5 440.11 1505.77 449.02 1514 458C1515.78 460 1517.27 462.17 1518.9 464.27L1518.85 471.21Z" fill="#FD9038"/>
<path d="M738.471 510.12C735.611 505.12 736.471 503.28 742.351 503.12C747.841 502.97 753.351 502.98 758.761 502.12C765.581 501.03 769.961 496.36 770.291 489.71C770.581 483.6 766.921 479.34 759.841 477.85C755.291 476.85 750.651 476.35 746.111 475.33C739.691 473.88 737.111 470.59 737.371 464.54C737.413 462.01 738.405 459.589 740.15 457.756C741.895 455.924 744.266 454.815 746.791 454.65C754.061 454.05 761.411 454.38 768.731 454.38C770.331 454.38 771.731 455.09 772.061 456.82C772.421 458.82 771.061 459.82 769.321 460.38C765.261 461.74 761.061 461 756.931 461.14C753.931 461.24 750.931 461.14 747.931 461.43C746.231 461.57 744.601 462.35 744.341 464.33C744.081 466.31 745.551 467.33 747.151 467.93C750.751 469.32 754.541 469.77 758.331 470.38C766.651 471.72 774.331 473.95 776.621 483.8C779.351 495.59 772.621 506.49 760.741 509.01C759.291 509.32 757.861 509.75 756.421 510.12H738.471Z" fill="#FD9038"/>
<path d="M796.42 510.12C793.71 508.32 793.42 505.63 793.42 502.67C793.49 491.22 793.42 479.76 793.42 468.31C793.42 461.31 793.42 461.31 786.62 461.18C786.12 461.18 785.62 461.18 785.12 461.18C782.58 461.04 779.63 461.01 779.64 457.58C779.64 453.94 782.79 454.32 785.22 454.3C793.026 454.24 800.843 454.24 808.67 454.3C811.14 454.3 814.19 454.1 814.14 457.72C814.14 460.79 811.39 461.28 809.01 461.15C799.19 460.62 800.33 462.21 800.31 470.45C800.31 480.25 800.31 490.047 800.31 499.84C800.31 503.57 799.79 507.13 797.31 510.14L796.42 510.12Z" fill="#FD9038"/>
<path d="M169.92 438.2C128.92 438.2 87.98 438.14 47.01 438.2C39.18 438.2 31.38 437.83 23.58 437.28C9.05005 436.28 -2.36995 419.58 0.420046 403.85C2.54005 391.94 11.5 380 28.91 380.11C112.84 380.61 196.77 380.26 280.7 380.7C296.7 380.78 312.65 381.16 328.62 381.33C340.81 381.46 350.45 376.98 355.75 365.5C361.05 354.02 359.75 342.8 351.85 332.73C346.85 326.29 340.01 323.44 331.79 323.46C297.48 323.55 263.17 323.02 228.87 323.62C183.5 324.42 151.35 292.31 145.2 251.9C139.83 216.63 150.36 186.7 179.07 164.48C191.25 154.92 206.316 149.779 221.8 149.9C266.8 149.9 311.72 149.9 356.69 149.9C372.51 149.9 383.76 161.77 383.83 178.18C383.89 195.32 372.77 207.69 356.73 207.74C312.93 207.86 269.13 207.74 225.34 207.8C209.4 207.8 198.68 218.46 197.27 235.5C196.13 249.28 206.39 262.65 220.2 265.17C222.847 265.566 225.525 265.72 228.2 265.63C261.5 265.63 294.83 266.38 328.11 265.45C363.77 264.45 394.88 289.05 405.36 320.89C416.53 354.83 411.19 386.09 387.75 413.27C375.08 427.97 358.43 436.33 338.75 438.41C319.93 440.41 301.18 437.86 282.38 438.29C263.58 438.72 244.75 438.29 225.93 438.29C207.263 438.29 188.597 438.29 169.93 438.29L169.92 438.2Z" fill="#FD9038"/>
<path d="M947.23 346.51C946.77 338.87 947.87 329.89 946.57 320.93C945.915 316.14 944.129 311.574 941.36 307.61C921.73 279.54 902.21 251.39 882.47 223.4C872.83 209.74 871.59 197.28 879.29 185.4C889.29 169.97 911.601 169.45 921.84 184.76C932.19 200.23 941.98 216.09 952.01 231.76C959.64 243.68 971.47 247.88 983.86 243C989.17 240.91 993.02 237.12 996.01 232.33C1005.17 217.66 1014.27 202.95 1023.58 188.38C1032.67 174.16 1046.53 169.88 1058.81 177.22C1065.25 181.089 1069.91 187.325 1071.8 194.592C1073.69 201.858 1072.65 209.576 1068.92 216.09C1063.82 225.01 1057.52 233.25 1051.68 241.74C1036.49 263.74 1021.36 285.87 1005.97 307.74C1000.71 315.24 1000.73 323.74 1000.48 332.12C1000.12 344.12 1000.48 356.05 1000.37 368.02C1000.26 383.92 989.29 395.34 974.22 395.37C958.76 395.37 947.46 384.05 947.22 368.17C947.15 361.45 947.23 354.64 947.23 346.51Z" fill="#FD9038"/>
<path d="M1205.11 169.58C1207.82 172.2 1208.66 175.14 1209.89 177.8C1216.23 191.54 1222.42 205.35 1228.73 219.09C1232.22 226.69 1231.99 234.09 1228.61 241.72C1222.25 255.99 1216.11 270.36 1209.87 284.72C1207.03 291.26 1207.51 297.64 1210.66 303.96C1211.88 306.624 1213.76 308.925 1216.14 310.637C1218.52 312.348 1221.3 313.411 1224.21 313.72C1235.49 315.28 1246.83 314.27 1258.14 314.46C1270.79 314.67 1279.14 322.84 1279.05 335.28C1278.98 347.37 1270.56 355.48 1257.93 355.51C1236.79 355.51 1215.64 355.6 1194.49 355.51C1185.14 355.46 1178.49 359.24 1174.84 367.96C1172.58 373.32 1170.22 378.64 1167.84 383.96C1164.35 391.72 1158.47 395.78 1149.84 395.57C1145.18 395.289 1140.5 395.309 1135.84 395.63C1118.51 397.46 1109.84 379.34 1116.31 365.42C1119.25 359.09 1122.05 352.69 1124.93 346.33C1150.93 288.75 1176.93 231.177 1202.93 173.61C1203.45 172.35 1204.18 171.25 1205.11 169.58Z" fill="#FD9038"/>
<path d="M939.31 481.93C939.41 470.8 937.83 470.53 950.42 472.08C971.2 474.64 992.08 476.42 1012.71 480.17C1014.19 480.44 1015.71 480.69 1017.11 481.08C1018.51 481.47 1021.02 481.14 1020.97 483.23C1020.97 484.82 1018.68 484.84 1017.27 485.05C1010.04 486.16 1002.82 487.35 995.55 488.14C980.03 489.83 964.47 491.31 948.93 492.87C947.93 492.96 946.93 493.06 945.93 493.1C939.8 493.35 939.35 492.93 939.29 486.92C939.3 485.25 939.31 483.59 939.31 481.93Z" fill="#FD9038"/>
<path d="M442.271 483.87C449.531 481.06 456.591 480.22 463.561 479.32C482.181 476.92 500.84 474.86 519.48 472.54C523.12 472.09 524.841 473.12 524.711 476.95C524.571 481.1 524.561 485.26 524.711 489.41C524.851 493.17 523.06 494.49 519.54 494.18C506.46 493.02 493.371 492.07 480.321 490.7C469.421 489.56 458.471 488.59 447.721 486.3C446.121 486 444.401 485.94 442.271 483.87Z" fill="#FD9038"/>
<path d="M584.53 466.45C581.58 471.77 579.83 476.45 576.75 480.38C572.94 485.21 570.28 485.26 566.51 480.38C565.028 478.371 563.692 476.259 562.51 474.06C561.366 471.633 559.855 469.396 558.03 467.43C557.56 471.67 556.9 475.91 556.64 480.17C556.17 488.11 555.94 496.07 555.59 504.02C555.49 506.19 555.53 508.74 552.59 508.84C549.65 508.94 549.05 506.3 549.06 504.26C549.06 496.81 549.18 489.33 549.87 481.92C550.56 474.51 550.72 467 552.52 459.71C553.16 457.12 553.72 454.08 556.97 453.84C559.87 453.62 561.06 456.33 562.21 458.51C564.69 463.2 566.21 468.33 569.21 472.8C571.04 475.54 572.33 475.74 574.21 472.91C577.13 468.59 578.85 463.75 580.85 459.01C581.85 456.56 582.97 453.62 586.16 453.84C589.35 454.06 590.04 457.11 590.61 459.72C592.49 468.34 592.61 477.17 593.44 485.91C594.01 491.68 594.21 497.49 594.44 503.29C594.52 505.78 594.38 508.82 591 508.9C587.44 508.97 587.6 505.84 587.59 503.38C587.54 492.09 586.54 480.86 585.46 469.64C585.223 468.557 584.913 467.491 584.53 466.45Z" fill="#FD9038"/>
<path d="M614.48 502.92C615.77 493.46 620.26 485.19 626.61 477.99C629.38 474.85 629.28 472.93 626.22 470.32C622.94 467.51 619.91 464.37 618.44 460.14C617.68 457.96 617.44 455.59 619.67 454.34C621.9 453.09 623.41 455.2 624.42 456.79C626.598 460.123 629 463.304 631.61 466.31C634.43 469.66 636.99 469.52 639.87 466.38C642.346 463.47 644.59 460.371 646.581 457.11C647.731 455.38 649.15 453.69 651.44 454.74C654.12 455.95 653.331 458.29 652.581 460.35C650.851 465.06 647.29 468.35 643.49 471.35C640.79 473.47 640.871 474.99 643.211 477.26C649.631 483.49 652.88 491.45 654.91 499.96C655.313 501.733 655.448 503.557 655.31 505.37C655.19 507.37 654.16 508.9 651.92 508.97C649.92 509.03 648.92 507.73 648.54 505.97C648.14 504.02 647.89 502.05 647.54 500.09C646.25 492.67 642.631 486.44 637.701 480.86C635.771 478.68 634.22 478.86 632.44 481.04C627.72 486.73 623.71 492.76 622.6 500.29C622.4 501.6 622.11 502.9 621.79 504.19C621.18 506.61 620.791 509.53 617.271 508.89C614.171 508.29 614.74 505.45 614.48 502.92Z" fill="#FD9038"/>
<path d="M1141.19 0C1144.59 1.46 1147.03 4 1149.44 6.29C1162.4 18.6833 1175.24 31.19 1187.97 43.81C1192.97 48.72 1192.77 49.29 1187.36 53.81C1179.36 60.46 1179.42 60.44 1173.48 51.86C1163 36.71 1152.48 21.56 1143.1 5.71C1142.14 4.07 1140.58 2.57 1141.19 0Z" fill="#FD9038"/>
<path d="M610.58 481.69C610.58 488.5 610.58 495.31 610.58 502.11C610.58 503.77 610.72 505.51 609.74 506.95C608.14 509.33 606.32 509.53 604.74 507C603.62 505.25 603.67 503.19 603.67 501.19C603.67 487.57 603.67 473.95 603.67 460.33C603.646 459.168 603.733 458.006 603.93 456.86C604.22 455.31 605 453.97 606.75 453.8C607.171 453.753 607.596 453.796 607.999 453.926C608.402 454.056 608.773 454.27 609.088 454.553C609.402 454.836 609.653 455.183 609.824 455.57C609.995 455.958 610.082 456.377 610.08 456.8C610.44 460.8 610.5 464.74 610.57 468.72C610.65 473.04 610.57 477.36 610.57 481.72L610.58 481.69Z" fill="#FD9038"/>
<path d="M733.48 481.57C733.48 488.71 733.48 495.84 733.48 502.98C733.48 505.48 733.36 508.61 730.04 508.59C727.04 508.59 726.79 505.41 726.77 503.22C726.62 488.29 726.63 473.36 726.77 458.42C726.77 456.28 727.36 453.71 730.22 453.84C733.08 453.97 733.42 456.43 733.44 458.67C733.5 466.3 733.44 473.94 733.44 481.57H733.48Z" fill="#FD9038"/>
<path d="M1342 204.8L1340.15 205.8H1333.22C1336 203.73 1338.93 203.28 1342 204.8Z" fill="#E3E3E3"/>
<path d="M906.64 465.86C898.08 449.8 878.3 448.69 868.04 463.74C857.13 479.74 863.13 500.63 881.35 510.12H891.35C911.6 502.4 913.41 478.58 906.64 465.86ZM900.48 493.48C897.62 499.61 892.97 503.48 885.66 503.18C878.35 502.88 874.31 498.49 871.66 492.3C870.25 489.01 870.24 485.52 870.29 481.53C869.986 476.865 871.065 472.215 873.39 468.16C876.48 462.6 881.13 459.27 887.45 459.56C894.05 459.87 898.37 464.14 901 469.88C904.59 477.75 904.08 485.77 900.48 493.48Z" fill="#FD9038"/>
<path d="M823.13 175.18C815.41 173.18 809.13 177.55 805.88 187.09C805.287 188.817 804.71 190.553 804.15 192.3C797.45 213.23 789.72 233.75 779.24 253.14C773.37 264.01 766.65 274.29 757.66 282.91C756.77 283.76 755.95 285.32 754.38 284.47C753.2 283.82 753.58 282.39 753.57 281.27C753.48 274.12 753.43 266.97 753.37 259.82C752.47 237.82 749.24 216.22 741.99 195.4C737.99 184.02 732.32 173.47 722.99 165.4C710.64 154.67 695.68 151.81 680.09 153.4C664.09 155.01 650.41 161.72 641.59 176.05C637.327 183.244 635.223 191.513 635.53 199.87C636.05 215.69 639.53 231.11 641.95 246.68C644.08 260.44 646.1 274.16 644.7 288.25C643.309 301.141 639.826 313.719 634.39 325.49C630.81 331.17 626.48 335.97 620.02 338.56C614.688 340.835 608.926 341.929 603.131 341.765C597.336 341.601 591.645 340.183 586.45 337.61C579.762 334.232 573.369 330.299 567.34 325.85C547.78 311.15 531.15 293.57 516.27 274.23C503 256.89 491 238.74 483.4 218.09C480.88 211.24 479.19 204.09 476.76 197.19C475.23 192.83 472.09 190.1 467.08 189.83C461.82 189.55 458.08 191.76 455.55 196.18C454.482 197.877 453.834 199.803 453.66 201.8C452.837 203.38 452.533 205.178 452.79 206.94C452.545 210.273 453.022 213.619 454.19 216.75C466.89 256.27 483.29 293.91 510.66 325.85C528.8 347 549.2 365.4 575.12 376.73C617.85 395.42 660.68 395.08 702.65 375.08C733.21 360.52 757.48 337.78 778.51 311.49C798.27 286.79 811.23 258.36 823.62 229.63C828.5 218.31 832.53 206.7 833.99 194.34C835 185.73 830.16 177 823.13 175.18ZM687.13 250.18C686.57 247.57 685.04 244.18 689.06 243.05C693.41 241.8 694.86 244.95 695.85 248.43C698.052 256.301 698.94 264.48 698.48 272.64C699 282.16 697.48 291.49 695.57 300.8C694.84 304.41 692.94 306.11 689.29 305.41C685.29 304.65 686.21 301.78 686.81 299.14C690.497 283.045 690.62 266.338 687.17 250.19L687.13 250.18Z" fill="#FD9038"/>
<path d="M727 147.52C733.822 148.576 740.797 147.965 747.331 145.74C749.796 144.907 751.921 143.288 753.377 141.131C754.833 138.974 755.54 136.398 755.391 133.8C755.211 128.68 751.97 126.8 746.8 126.8C750.92 120.37 752.68 114.14 749.94 107.34C748.6 104.03 746.27 101.65 742.6 101.34C738.93 101.03 736.711 103.25 735.031 106.13C733.314 108.991 732.138 112.144 731.56 115.43C730.24 123.64 726.67 130.88 722.22 137.8C719.71 141.72 717.49 145.8 714.48 150.96C725.68 145.75 734.091 138.96 742.641 132.37C739.851 139.44 733.53 142.77 727 147.52Z" fill="#FD9038"/>
<path d="M480 173.6C449.79 160.28 438.75 175.48 436.68 200.93C440.53 195.18 444.25 190.08 447.48 184.7C451.38 178.17 457.33 175.63 464.48 174.96C469.19 174.52 474 174.12 480 173.6Z" fill="#FD9038"/>
<path d="M809.12 161.76C813.76 162.18 818.03 162.76 822.33 162.93C830.92 163.3 837.64 166.64 842.23 174.15C845.23 179.09 848.66 183.78 851.89 188.57C848.24 158.5 835.69 150.48 809.12 161.76Z" fill="#FD9038"/>
<path d="M1324.18 134.9C1323.7 126.68 1319.83 121.58 1312.63 118.52C1306.99 116.12 1301.03 115.71 1294.94 116.04C1287.95 115.509 1280.95 116.765 1274.58 119.69C1261.93 125.661 1250.12 133.277 1239.46 142.34C1234.23 146.81 1228.27 151.2 1229.59 159.58C1229.65 159.99 1229.39 160.75 1229.09 160.87C1223.4 163.13 1226.03 167.71 1226.75 171.06C1233.53 202.63 1270.75 216.14 1295.61 195.43C1314.16 180 1325.66 160.37 1324.18 134.9ZM1244.55 178.81C1256.81 184.52 1268.69 192.05 1283.42 184.54C1275.59 196.34 1258.75 193.68 1244.55 178.81Z" fill="#FD9038"/>
<path d="M1402.12 262.36C1391.83 259.79 1381.45 260.11 1371.71 264.11C1355.71 270.68 1341.71 280.54 1328.97 292.21C1327.18 293.727 1325.8 295.664 1324.94 297.847C1324.09 300.031 1323.79 302.392 1324.07 304.72C1324.16 305.54 1325.47 307.33 1323.17 307.19C1319.47 306.97 1320 309.64 1320.26 311.58C1322.61 329.58 1336.26 349.48 1360.47 350.42C1366.82 350.782 1373.18 349.77 1379.11 347.455C1385.04 345.139 1390.4 341.573 1394.83 337C1408.83 322.89 1417.45 306.07 1418.97 291.52C1418.84 271.14 1415 265.55 1402.12 262.36ZM1339 324.07C1352.1 329.88 1364.44 338.58 1379.93 328.07C1370.59 341.68 1354 340.34 1339 324.07Z" fill="#FD9038"/>
<path d="M1458.91 348.86C1454.45 344.34 1449.36 342.52 1442.86 343.92C1454.03 345.6 1457.06 348.92 1459.08 360.09C1460.05 364.996 1459.9 370.058 1458.65 374.9C1455.55 386.46 1449.54 396.19 1439.11 402.59C1437.11 403.8 1433.71 405.7 1432.3 403.59C1430.7 401.13 1434.3 399.59 1436.08 398.16C1443 392.29 1449.08 385.74 1453.28 377.67C1457 370.59 1456.42 363.91 1451.28 357.73C1445.62 350.836 1437.66 346.219 1428.86 344.73C1423.93 343.83 1419.65 344.73 1415.86 348.86C1411.62 353.49 1406.42 357.22 1401.61 361.31C1400.79 362.01 1399.87 363.44 1398.72 362.31C1397.57 361.18 1398.91 360.15 1399.63 359.31C1407.79 350.1 1413.97 338.71 1426.85 334.69C1427.21 334.58 1427.41 333.97 1427.91 333.27C1427.43 333.074 1426.94 332.933 1426.43 332.85C1425.78 332.91 1425.13 333.07 1424.43 333.19C1406.84 336.38 1396.51 348.83 1386.93 362.34C1381.71 369.7 1381.93 376.9 1387.02 384.04C1390.87 389.45 1394.81 394.83 1399.02 399.92C1404.23 406.16 1409.25 412.66 1416.38 416.92C1420.5 419.4 1424.92 421.16 1429.64 419.02C1445.18 412.02 1458.16 402.09 1465.48 386.07C1471.61 372.83 1469.11 359.21 1458.91 348.86ZM1410.63 398.32C1404.72 391.93 1401.51 384.16 1400.06 375.65C1399.86 374.336 1399.91 372.997 1400.2 371.7C1400.71 369.37 1401.74 366.62 1404.2 366.52C1407.2 366.39 1406.47 369.69 1406.74 371.52C1407.74 378.41 1410.65 384.52 1414.1 390.41C1416.59 394.66 1420.73 396.76 1425.3 398.15C1426.49 398.51 1428.04 397.95 1428.83 399.42C1426.26 401.661 1422.91 402.802 1419.5 402.596C1416.1 402.39 1412.91 400.854 1410.63 398.32ZM1429.95 353.32C1430.06 351.32 1430.84 349.77 1433.16 349.76C1435.11 349.76 1439.4 354.37 1439.16 356.32C1438.92 358.7 1436.98 358.26 1435.64 358.44C1432.68 357.68 1429.74 357.16 1430 353.3L1429.95 353.32Z" fill="#FD9038"/>
<path d="M1250.47 66.13C1246.57 62.18 1241.91 60.01 1236.23 60.73C1244.23 61.65 1247.84 66.73 1249.71 73.73C1252.2 83.15 1251.64 92.49 1246.91 100.85C1242.41 108.85 1238.01 117.45 1228.16 120.51C1226.57 121.01 1224.4 122.71 1223.26 120.59C1222.38 118.95 1224.71 117.89 1225.81 116.77C1231.81 110.61 1238.57 105.08 1243.1 97.54C1248.81 88.04 1248.48 81.18 1241.1 73.01C1234.69 65.95 1226.33 62.4 1216.92 61.32C1213.61 60.94 1211.05 62.2 1208.55 64.7C1203.63 69.63 1198.18 74.03 1192.94 78.63C1192.2 79.28 1191.28 80.15 1190.32 79.48C1189.17 78.67 1190.04 77.6 1190.65 76.91C1198.65 67.8 1204.43 56.27 1217.19 52.19C1218.19 51.87 1219.46 51.5 1219.7 50.08C1216.47 49.763 1213.21 50.2189 1210.19 51.41C1194.37 56.88 1184.83 69.17 1176.68 82.73C1175.35 84.8911 1174.64 87.3805 1174.64 89.92C1174.64 92.4595 1175.35 94.949 1176.68 97.11C1185.01 110.57 1194.11 123.51 1207.02 133.11C1212.68 137.31 1218.84 138.24 1225.02 133.78C1226.8 132.544 1228.7 131.499 1230.7 130.66C1243.38 125.15 1251.08 114.81 1256.88 103C1263.1 90.41 1260.3 76.09 1250.47 66.13ZM1202.47 115.48C1196.14 108.88 1193.02 100.72 1191.47 91.91C1191.29 90.4314 1191.44 88.9316 1191.92 87.52C1192.59 85.21 1193.84 82.73 1196.54 83.12C1198.88 83.46 1197.89 86.12 1198.13 87.8C1199.28 95.3895 1202.24 102.592 1206.75 108.8C1210.11 113.5 1215.52 114.8 1221.5 115.8C1214.5 121 1207.54 120.73 1202.5 115.48H1202.47ZM1221.25 70.17C1221.35 68.17 1222.36 66.68 1224.55 66.55C1226.55 66.43 1230.71 71.05 1230.55 73.07C1230.4 75.24 1228.7 74.96 1227.33 75.2C1224.55 74.4 1221.07 74.43 1221.28 70.17H1221.25Z" fill="#FD9038"/>
<path d="M1342 204.8C1340.89 204.18 1340 204.03 1340.15 205.8C1344.95 207.11 1347.7 210.45 1349.1 215.01C1351.48 222.82 1352.1 230.75 1349.47 238.55C1346.02 248.84 1340.2 257.61 1330.82 263.46C1328.82 264.74 1325.05 266.86 1323.61 264.64C1321.96 262.12 1326.1 260.75 1327.66 258.83C1328.27 258.265 1328.92 257.744 1329.6 257.27C1335.93 251.54 1341.6 245.27 1345.16 237.41C1348.16 230.77 1347.61 224.65 1342.71 218.86C1336.74 211.599 1328.29 206.795 1319 205.37C1314.92 204.7 1311.45 205.51 1308.62 208.69C1303.95 213.94 1297.96 217.69 1292.84 222.42C1292.11 223.1 1291.16 223.9 1290.23 223.13C1289.13 222.24 1290.1 221.26 1290.71 220.59C1299.04 211.59 1304.61 199.59 1317.71 195.82C1318.3 195.65 1318.82 195.09 1318.17 194.08C1313.91 194.254 1309.74 195.371 1305.96 197.35C1292.64 203.69 1283.84 214.65 1276.55 226.93C1273.86 231.45 1274.17 236.61 1276.73 241.27C1282.29 251.38 1289.6 260.21 1297.43 268.61C1300.7 272.12 1304 275.68 1308.26 278.12C1312.52 280.56 1317.04 281.96 1321.62 279.93C1337.77 272.77 1350.62 262.08 1357.71 245.35C1364.31 229.84 1356.88 210.4 1342 204.8ZM1300.23 256.87C1295.48 250.19 1291.9 242.94 1291.93 234.43C1291.76 232.775 1292.11 231.107 1292.93 229.66C1293.79 228.44 1294.76 227.01 1296.46 227.39C1298.16 227.77 1297.77 229.45 1298.02 230.71C1298.46 233.318 1299.03 235.901 1299.73 238.45C1303.08 249.13 1307.82 258.58 1322 260.11C1312.18 265.6 1305.59 264.43 1300.23 256.87ZM1321.33 214.12C1321.51 212.27 1322.25 210.49 1324.62 210.5C1326.62 210.5 1331.23 215.62 1330.95 217.5C1330.62 219.78 1328.73 219.5 1327.33 219.61C1324.28 218.68 1320.94 218.25 1321.33 214.12Z" fill="#FD9038"/>
<path d="M714.63 480.05C712.19 477.31 712.121 475.62 714.021 472.42C718.441 464.97 717.71 453.72 703.88 454.18C698.88 454.34 693.88 454.18 688.88 454.18C682.56 454.26 681.51 455.26 681.45 461.37C681.39 468.02 681.45 474.67 681.45 481.37C681.45 488.68 681.45 496 681.45 503.31C681.45 507.22 683.23 509.16 687.2 509.13C691.87 509.08 696.53 509.04 701.2 509.13C708.63 509.32 715.01 507.04 718.11 500.02C721.21 493 719.79 485.86 714.63 480.05ZM687.63 463.57C687.8 460.93 689.42 460.27 691.68 460.29H697.16V460.17C699.483 460.154 701.804 460.284 704.11 460.56C709.2 461.46 711.03 466 708.24 470.34C707.24 471.91 706.01 472.85 704.12 471.94C700.02 469.94 695.59 469.21 691.17 468.5C688.18 468 687.5 466.23 687.66 463.57H687.63ZM712.461 493.83C712.051 498.83 709.32 501.83 704.29 502.14C700.16 502.39 695.99 502.14 691.85 502.25C688.94 502.3 687.561 500.96 687.591 498.05C687.591 494.74 687.591 491.43 687.591 488.11C687.591 484.96 687.591 481.81 687.591 478.66C687.591 475.66 688.8 474.39 691.91 475.04C697.81 476.26 703.59 477.68 708.04 482.14C709.627 483.619 710.853 485.441 711.624 487.468C712.396 489.494 712.692 491.671 712.49 493.83H712.461Z" fill="#FD9038"/>
<path d="M860.26 502.45C859.783 495.945 857.682 489.663 854.15 484.18C851.29 479.92 850.55 476.81 854.25 472.55C857.51 468.8 857.45 463.75 855.19 459.36C853.07 455.24 848.88 454.28 844.51 454.27C838.19 454.27 831.86 454.37 825.51 454.27C820.67 454.17 818.51 456.37 818.51 461.15C818.57 467.97 818.51 474.78 818.51 481.59H818.57C818.57 489.07 818.48 496.54 818.57 504.02C818.57 506.12 818.91 508.81 821.75 508.89C824.96 508.97 825.16 506.17 825.21 503.89C825.35 497.74 825.33 491.59 825.34 485.44C825.34 474.44 828.1 472.9 838.13 478.32C838.852 478.729 839.55 479.179 840.22 479.67C848.44 485.46 851.86 493.87 853.22 503.42C853.59 506.03 853.6 509.42 857.39 508.93C861.18 508.44 860.49 504.92 860.26 502.45ZM847.51 471C845.92 472.77 843.98 473.41 841.73 472.24C837.716 470.308 833.418 469.035 829 468.47C826.39 468.06 825.24 466.74 825.52 464.1C825.8 461.46 827.8 461.2 829.86 461.17C832.17 461.17 834.48 461.17 836.8 461.17V461.22C839.27 461.22 841.8 461.15 844.23 461.22C846.53 461.29 848.49 462.1 849.14 464.57C849.447 465.691 849.458 466.873 849.172 468C848.886 469.127 848.314 470.16 847.51 471Z" fill="#FD9038"/>
</g>
<defs>
<clipPath id="clip0_442_19384">
<rect width="1518.85" height="510.12" fill="white"/>
</clipPath>
</defs>
</svg>
