<svg width="52" height="51" viewBox="0 0 52 51" fill="none" xmlns="http://www.w3.org/2000/svg">
<g clip-path="url(#clip0_442_16673)">
<path d="M25.925 31.3701C29.4459 31.3701 32.3 28.5719 32.3 25.1201C32.3 21.6683 29.4459 18.8701 25.925 18.8701C22.4042 18.8701 19.55 21.6683 19.55 25.1201C19.55 28.5719 22.4042 31.3701 25.925 31.3701Z" fill="#F9DF7A" style="mix-blend-mode:overlay"/>
<path d="M34.6907 5.58887H17.1594C14.2006 5.58887 11.363 6.74121 9.27076 8.79239C7.17856 10.8436 6.00317 13.6256 6.00317 16.5264V33.7139C6.00317 36.6147 7.17856 39.3967 9.27076 41.4478C11.363 43.499 14.2006 44.6514 17.1594 44.6514H34.6907C37.6495 44.6514 40.4871 43.499 42.5793 41.4478C44.6715 39.3967 45.8469 36.6147 45.8469 33.7139V16.5264C45.8469 13.6256 44.6715 10.8436 42.5793 8.79239C40.4871 6.74121 37.6495 5.58887 34.6907 5.58887ZM25.925 34.4951C24.0338 34.4951 22.185 33.9453 20.6124 32.9151C19.0399 31.885 17.8142 30.4208 17.0905 28.7078C16.3667 26.9947 16.1773 25.1097 16.5463 23.2911C16.9153 21.4726 17.826 19.8021 19.1633 18.491C20.5007 17.1799 22.2046 16.287 24.0595 15.9253C25.9144 15.5635 27.8371 15.7492 29.5845 16.4587C31.3318 17.1683 32.8252 18.3699 33.876 19.9116C34.9267 21.4534 35.4875 23.2659 35.4875 25.1201C35.4875 27.6065 34.4801 29.9911 32.6868 31.7492C30.8934 33.5074 28.4612 34.4951 25.925 34.4951ZM36.2844 17.3076C35.8116 17.3076 35.3494 17.1702 34.9563 16.9126C34.5631 16.6551 34.2567 16.289 34.0758 15.8608C33.8948 15.4325 33.8475 14.9613 33.9397 14.5066C34.032 14.052 34.2597 13.6344 34.594 13.3066C34.9283 12.9788 35.3543 12.7556 35.818 12.6652C36.2818 12.5747 36.7624 12.6211 37.1993 12.7985C37.6361 12.9759 38.0095 13.2763 38.2722 13.6617C38.5348 14.0472 38.675 14.5003 38.675 14.9639C38.675 15.5855 38.4232 16.1816 37.9748 16.6211C37.5265 17.0607 36.9185 17.3076 36.2844 17.3076Z" fill="#F9DF7A" style="mix-blend-mode:overlay"/>
</g>
<defs>
<clipPath id="clip0_442_16673">
<rect width="51" height="50" fill="white" transform="translate(0.425049 0.120117)"/>
</clipPath>
</defs>
</svg>
