<svg width="52" height="51" viewBox="0 0 52 51" fill="none" xmlns="http://www.w3.org/2000/svg">
<g clip-path="url(#clip0_442_16680)">
<path d="M46.6438 16.5264V24.3389C46.6438 24.7533 46.4759 25.1507 46.177 25.4437C45.8781 25.7367 45.4727 25.9014 45.05 25.9014C41.7208 25.9099 38.4393 25.1257 35.4875 23.6162V30.5889C35.4879 33.4128 34.6666 36.1783 33.12 38.5606C31.5735 40.943 29.3658 42.8434 26.7562 44.0389C24.1466 45.2343 21.2433 45.6751 18.3871 45.3096C15.5309 44.944 12.8403 43.7873 10.6312 41.9752C8.422 40.163 6.78593 37.7707 5.915 35.0789C5.04406 32.3871 4.97438 29.5077 5.71415 26.7784C6.45392 24.0492 7.97243 21.5835 10.0915 19.6707C12.2105 17.7579 14.8421 16.4774 17.6774 15.9795C17.9049 15.9395 18.1385 15.9484 18.3621 16.0058C18.5857 16.0631 18.7939 16.1674 18.9723 16.3115C19.1562 16.457 19.3038 16.6417 19.4039 16.8515C19.504 17.0614 19.554 17.2908 19.55 17.5225V25.6475C19.5509 25.9433 19.465 26.2332 19.3025 26.4825C19.14 26.7318 18.9078 26.9301 18.6336 27.0537C17.9905 27.354 17.4412 27.8179 17.043 28.3971C16.6448 28.9762 16.4123 29.6495 16.3697 30.3466C16.3271 31.0438 16.4759 31.7395 16.8006 32.3611C17.1254 32.9827 17.6142 33.5076 18.2162 33.8811C18.8182 34.2546 19.5113 34.4631 20.2234 34.4847C20.9354 34.5064 21.6404 34.3405 22.2648 34.0043C22.8892 33.6681 23.4103 33.1739 23.7738 32.5732C24.1372 31.9725 24.3298 31.2873 24.3313 30.5889V5.58887C24.3313 5.17447 24.4992 4.77704 24.7981 4.48401C25.097 4.19099 25.5024 4.02637 25.925 4.02637H33.8938C34.3165 4.02637 34.7219 4.19099 35.0208 4.48401C35.3196 4.77704 35.4875 5.17447 35.4875 5.58887C35.4875 8.07527 36.495 10.4598 38.2883 12.218C40.0817 13.9761 42.5139 14.9639 45.05 14.9639C45.4727 14.9639 45.8781 15.1285 46.177 15.4215C46.4759 15.7145 46.6438 16.112 46.6438 16.5264Z" fill="#FD9038" style="mix-blend-mode:overlay"/>
</g>
<defs>
<clipPath id="clip0_442_16680">
<rect width="51" height="50" fill="white" transform="translate(0.425049 0.120117)"/>
</clipPath>
</defs>
</svg>
